<svg width="49" height="48" viewBox="0 0 49 48" fill="none" xmlns="http://www.w3.org/2000/svg">
<path d="M0.5 19.2C0.5 12.4794 0.5 9.11905 1.80792 6.55211C2.9584 4.29417 4.79417 2.4584 7.05211 1.30792C9.61905 0 12.9794 0 19.7 0H29.3C36.0206 0 39.3809 0 41.9479 1.30792C44.2058 2.4584 46.0416 4.29417 47.1921 6.55211C48.5 9.11905 48.5 12.4794 48.5 19.2V28.8C48.5 35.5206 48.5 38.8809 47.1921 41.4479C46.0416 43.7058 44.2058 45.5416 41.9479 46.6921C39.3809 48 36.0206 48 29.3 48H19.7C12.9794 48 9.61905 48 7.05211 46.6921C4.79417 45.5416 2.9584 43.7058 1.80792 41.4479C0.5 38.8809 0.5 35.5206 0.5 28.8V19.2Z" fill="#5E50FD"/>
<g filter="url(#filter0_d_459_16490)">
<path d="M20.75 30.6346C22.3432 30.6346 23.6346 29.3432 23.6346 27.75C23.6346 26.1568 22.3432 24.8654 20.75 24.8654C19.1568 24.8654 17.8654 26.1568 17.8654 27.75C17.8654 29.3432 19.1568 30.6346 20.75 30.6346ZM20.75 23.1347C22.3432 23.1347 23.6346 21.8432 23.6346 20.25C23.6346 18.6568 22.3432 17.3654 20.75 17.3654C19.1568 17.3654 17.8654 18.6568 17.8654 20.25C17.8654 21.8432 19.1568 23.1347 20.75 23.1347ZM28.25 30.6346C29.8432 30.6346 31.1347 29.3432 31.1347 27.75C31.1347 26.1568 29.8432 24.8654 28.25 24.8654C26.6568 24.8654 25.3653 26.1568 25.3653 27.75C25.3653 29.3432 26.6568 30.6346 28.25 30.6346ZM28.25 23.1347C29.8432 23.1347 31.1347 21.8432 31.1347 20.25C31.1347 18.6568 29.8432 17.3654 28.25 17.3654C26.6568 17.3654 25.3653 18.6568 25.3653 20.25C25.3653 21.8432 26.6568 23.1347 28.25 23.1347ZM24.5 9C32.625 9 39.5 15.875 39.5 24C39.5 32.125 32.625 39 24.5 39C16.375 39 9.5 32.125 9.5 24C9.5 15.8751 16.375 9 24.5 9ZM24.5 13.0385C18.4634 13.0385 13.5385 17.7929 13.5385 23.7986C13.5385 29.8044 18.4634 34.9615 24.5 34.9615C30.5366 34.9615 35.4615 29.8044 35.4615 23.7986C35.4615 17.7929 30.5366 13.0385 24.5 13.0385Z" fill="url(#paint0_linear_459_16490)" shape-rendering="crispEdges"/>
</g>
<defs>
<filter id="filter0_d_459_16490" x="9" y="8.75" width="31" height="31" filterUnits="userSpaceOnUse" color-interpolation-filters="sRGB">
<feFlood flood-opacity="0" result="BackgroundImageFix"/>
<feColorMatrix in="SourceAlpha" type="matrix" values="0 0 0 0 0 0 0 0 0 0 0 0 0 0 0 0 0 0 127 0" result="hardAlpha"/>
<feOffset dy="0.25"/>
<feGaussianBlur stdDeviation="0.25"/>
<feComposite in2="hardAlpha" operator="out"/>
<feColorMatrix type="matrix" values="0 0 0 0 0 0 0 0 0 0 0 0 0 0 0 0 0 0 0.2 0"/>
<feBlend mode="normal" in2="BackgroundImageFix" result="effect1_dropShadow_459_16490"/>
<feBlend mode="normal" in="SourceGraphic" in2="effect1_dropShadow_459_16490" result="shape"/>
</filter>
<linearGradient id="paint0_linear_459_16490" x1="24.5" y1="9" x2="24.5" y2="39" gradientUnits="userSpaceOnUse">
<stop stop-color="white"/>
<stop offset="1" stop-color="white" stop-opacity="0.7"/>
</linearGradient>
</defs>
</svg>
