<svg width="48" height="48" viewBox="0 0 48 48" fill="none" xmlns="http://www.w3.org/2000/svg">
<path d="M0 19.2C0 12.4794 0 9.11905 1.30792 6.55211C2.4584 4.29417 4.29417 2.4584 6.55211 1.30792C9.11905 0 12.4794 0 19.2 0H28.8C35.5206 0 38.8809 0 41.4479 1.30792C43.7058 2.4584 45.5416 4.29417 46.6921 6.55211C48 9.11905 48 12.4794 48 19.2V28.8C48 35.5206 48 38.8809 46.6921 41.4479C45.5416 43.7058 43.7058 45.5416 41.4479 46.6921C38.8809 48 35.5206 48 28.8 48H19.2C12.4794 48 9.11905 48 6.55211 46.6921C4.29417 45.5416 2.4584 43.7058 1.30792 41.4479C0 38.8809 0 35.5206 0 28.8V19.2Z" fill="#5E50FD"/>
<g filter="url(#filter0_d_459_16470)">
<path d="M31.5 10.25H16.5C14.843 10.252 13.2544 10.9111 12.0828 12.0828C10.9111 13.2544 10.252 14.843 10.25 16.5V26.5C10.2518 27.9403 10.7501 29.3359 11.6609 30.4516C12.5717 31.5673 13.8393 32.3349 15.25 32.625V36.5C15.25 36.7263 15.3114 36.9484 15.4277 37.1425C15.5439 37.3367 15.7108 37.4956 15.9103 37.6023C16.1098 37.7091 16.3346 37.7597 16.5606 37.7487C16.7867 37.7377 17.0055 37.6656 17.1937 37.54L24.375 32.75H31.5C33.157 32.748 34.7456 32.0889 35.9172 30.9172C37.0889 29.7456 37.748 28.157 37.75 26.5V16.5C37.748 14.843 37.0889 13.2544 35.9172 12.0828C34.7456 10.9111 33.157 10.252 31.5 10.25ZM29 25.25H19C18.6685 25.25 18.3505 25.1183 18.1161 24.8839C17.8817 24.6495 17.75 24.3315 17.75 24C17.75 23.6685 17.8817 23.3505 18.1161 23.1161C18.3505 22.8817 18.6685 22.75 19 22.75H29C29.3315 22.75 29.6495 22.8817 29.8839 23.1161C30.1183 23.3505 30.25 23.6685 30.25 24C30.25 24.3315 30.1183 24.6495 29.8839 24.8839C29.6495 25.1183 29.3315 25.25 29 25.25ZM31.5 20.25H16.5C16.1685 20.25 15.8505 20.1183 15.6161 19.8839C15.3817 19.6495 15.25 19.3315 15.25 19C15.25 18.6685 15.3817 18.3505 15.6161 18.1161C15.8505 17.8817 16.1685 17.75 16.5 17.75H31.5C31.8315 17.75 32.1495 17.8817 32.3839 18.1161C32.6183 18.3505 32.75 18.6685 32.75 19C32.75 19.3315 32.6183 19.6495 32.3839 19.8839C32.1495 20.1183 31.8315 20.25 31.5 20.25Z" fill="url(#paint0_linear_459_16470)" shape-rendering="crispEdges"/>
</g>
<defs>
<filter id="filter0_d_459_16470" x="9.75" y="10" width="28.5" height="28.5" filterUnits="userSpaceOnUse" color-interpolation-filters="sRGB">
<feFlood flood-opacity="0" result="BackgroundImageFix"/>
<feColorMatrix in="SourceAlpha" type="matrix" values="0 0 0 0 0 0 0 0 0 0 0 0 0 0 0 0 0 0 127 0" result="hardAlpha"/>
<feOffset dy="0.25"/>
<feGaussianBlur stdDeviation="0.25"/>
<feComposite in2="hardAlpha" operator="out"/>
<feColorMatrix type="matrix" values="0 0 0 0 0 0 0 0 0 0 0 0 0 0 0 0 0 0 0.2 0"/>
<feBlend mode="normal" in2="BackgroundImageFix" result="effect1_dropShadow_459_16470"/>
<feBlend mode="normal" in="SourceGraphic" in2="effect1_dropShadow_459_16470" result="shape"/>
</filter>
<linearGradient id="paint0_linear_459_16470" x1="24" y1="10.25" x2="24" y2="37.7502" gradientUnits="userSpaceOnUse">
<stop stop-color="white"/>
<stop offset="1" stop-color="white" stop-opacity="0.7"/>
</linearGradient>
</defs>
</svg>
