<svg width="49" height="48" viewBox="0 0 49 48" fill="none" xmlns="http://www.w3.org/2000/svg">
<path d="M0.5 19.2C0.5 12.4794 0.5 9.11905 1.80792 6.55211C2.9584 4.29417 4.79417 2.4584 7.05211 1.30792C9.61905 0 12.9794 0 19.7 0H29.3C36.0206 0 39.3809 0 41.9479 1.30792C44.2058 2.4584 46.0416 4.29417 47.1921 6.55211C48.5 9.11905 48.5 12.4794 48.5 19.2V28.8C48.5 35.5206 48.5 38.8809 47.1921 41.4479C46.0416 43.7058 44.2058 45.5416 41.9479 46.6921C39.3809 48 36.0206 48 29.3 48H19.7C12.9794 48 9.61905 48 7.05211 46.6921C4.79417 45.5416 2.9584 43.7058 1.80792 41.4479C0.5 38.8809 0.5 35.5206 0.5 28.8V19.2Z" fill="#5E50FD"/>
<g filter="url(#filter0_d_459_16478)">
<path d="M38.6852 20.6527C38.612 20.4343 38.4799 20.2404 38.3034 20.0924C38.1269 19.9444 37.913 19.848 37.6852 19.8139L29.7077 18.5952L26.1277 10.9702C26.0268 10.7554 25.8668 10.5739 25.6665 10.4467C25.4662 10.3195 25.2338 10.252 24.9965 10.252C24.7592 10.252 24.5268 10.3195 24.3265 10.4467C24.1262 10.5739 23.9662 10.7554 23.8652 10.9702L20.2852 18.5952L12.3077 19.8139C12.0805 19.8486 11.8672 19.9452 11.6914 20.0932C11.5155 20.2411 11.3838 20.4347 11.3108 20.6527C11.2378 20.8706 11.2263 21.1045 11.2776 21.3286C11.3289 21.5526 11.441 21.7582 11.6015 21.9227L17.4152 27.8752L16.0402 36.2977C16.0027 36.5288 16.0309 36.7659 16.1215 36.9818C16.2121 37.1977 16.3616 37.3838 16.5529 37.5189C16.7441 37.6541 16.9695 37.7327 17.2033 37.746C17.4371 37.7592 17.6699 37.7066 17.8752 37.5939L25.0002 33.6589L32.1252 37.5939C32.3305 37.7075 32.5637 37.761 32.798 37.7483C33.0322 37.7356 33.2582 37.6572 33.45 37.5221C33.6419 37.387 33.7918 37.2006 33.8827 36.9843C33.9736 36.768 34.0017 36.5305 33.964 36.2989L32.589 27.8764L38.399 21.9227C38.5588 21.7577 38.67 21.5519 38.7205 21.3279C38.771 21.1039 38.7588 20.8702 38.6852 20.6527Z" fill="url(#paint0_linear_459_16478)" shape-rendering="crispEdges"/>
</g>
<defs>
<filter id="filter0_d_459_16478" x="10.7461" y="10.002" width="28.5059" height="28.498" filterUnits="userSpaceOnUse" color-interpolation-filters="sRGB">
<feFlood flood-opacity="0" result="BackgroundImageFix"/>
<feColorMatrix in="SourceAlpha" type="matrix" values="0 0 0 0 0 0 0 0 0 0 0 0 0 0 0 0 0 0 127 0" result="hardAlpha"/>
<feOffset dy="0.25"/>
<feGaussianBlur stdDeviation="0.25"/>
<feComposite in2="hardAlpha" operator="out"/>
<feColorMatrix type="matrix" values="0 0 0 0 0 0 0 0 0 0 0 0 0 0 0 0 0 0 0.2 0"/>
<feBlend mode="normal" in2="BackgroundImageFix" result="effect1_dropShadow_459_16478"/>
<feBlend mode="normal" in="SourceGraphic" in2="effect1_dropShadow_459_16478" result="shape"/>
</filter>
<linearGradient id="paint0_linear_459_16478" x1="24.9986" y1="10.252" x2="24.9986" y2="37.7501" gradientUnits="userSpaceOnUse">
<stop stop-color="white"/>
<stop offset="1" stop-color="white" stop-opacity="0.7"/>
</linearGradient>
</defs>
</svg>
