<svg width="48" height="48" viewBox="0 0 48 48" fill="none" xmlns="http://www.w3.org/2000/svg">
<path d="M0 19.2C0 12.4794 0 9.11905 1.30792 6.55211C2.4584 4.29417 4.29417 2.4584 6.55211 1.30792C9.11905 0 12.4794 0 19.2 0H28.8C35.5206 0 38.8809 0 41.4479 1.30792C43.7058 2.4584 45.5416 4.29417 46.6921 6.55211C48 9.11905 48 12.4794 48 19.2V28.8C48 35.5206 48 38.8809 46.6921 41.4479C45.5416 43.7058 43.7058 45.5416 41.4479 46.6921C38.8809 48 35.5206 48 28.8 48H19.2C12.4794 48 9.11905 48 6.55211 46.6921C4.29417 45.5416 2.4584 43.7058 1.30792 41.4479C0 38.8809 0 35.5206 0 28.8V19.2Z" fill="#5E50FD"/>
<g filter="url(#filter0_d_459_16554)">
<path d="M14.4052 34.424C15.3628 35.3913 16.3591 36.199 17.3942 36.8471C18.4292 37.5049 19.44 38.0321 20.4267 38.4287C21.423 38.8253 22.3371 39.1251 23.169 39.3283C24.0106 39.5314 24.7119 39.662 25.2729 39.72C25.7469 39.7974 26.129 39.7249 26.4192 39.5024C26.719 39.2896 26.8835 38.9897 26.9125 38.6028C26.9318 38.2642 26.8351 37.9692 26.6223 37.7177C26.4192 37.4662 26.1096 37.2921 25.6937 37.1954C25.181 37.1083 24.5523 36.968 23.8074 36.7746C23.0723 36.5908 22.2694 36.3248 21.3988 35.9765C20.5379 35.6283 19.6625 35.1834 18.7726 34.6417C17.8826 34.0903 17.0362 33.4083 16.2334 32.5958C14.9372 31.2899 13.9022 29.8486 13.1283 28.2719C12.3545 26.6855 11.8708 25.0749 11.6773 23.4402C11.4935 21.8054 11.6096 20.2481 12.0256 18.7681C12.4512 17.2881 13.2057 16.0064 14.2891 14.923C15.1597 14.0718 16.1415 13.4382 17.2345 13.0222C18.3276 12.6063 19.4739 12.3886 20.6733 12.3693C21.8825 12.3403 23.0819 12.4805 24.2717 12.7901C25.4712 13.0899 26.5981 13.5204 27.6525 14.0814L29.5678 12.1952C28.1942 11.3536 26.7335 10.7249 25.1859 10.3089C23.6478 9.89298 22.1098 9.70919 20.5718 9.75756C19.0337 9.80592 17.5683 10.1058 16.1753 10.6572C14.7824 11.1989 13.5443 12.0114 12.4609 13.0948C11.4258 14.1298 10.623 15.3196 10.0523 16.6642C9.48154 18.0087 9.14298 19.4403 9.03658 20.959C8.93017 22.4777 9.05592 24.0254 9.41383 25.6021C9.77173 27.1692 10.3666 28.7072 11.1985 30.2162C12.0304 31.7252 13.0993 33.1278 14.4052 34.424ZM19.6722 30.2307C20.5428 31.1497 21.5197 31.9429 22.6031 32.6103C23.6962 33.2681 24.8376 33.7808 26.0274 34.1483C27.2172 34.5159 28.4022 34.7094 29.5823 34.7287C30.7624 34.7384 31.8845 34.5546 32.9485 34.1773C34.0126 33.7904 34.9605 33.1859 35.7924 32.3636C36.634 31.5124 37.2531 30.5257 37.6497 29.4037C38.0463 28.2719 38.2155 27.0579 38.1575 25.7617C38.1091 24.4559 37.8383 23.1258 37.345 21.7716C36.8613 20.4077 36.1552 19.0776 35.2265 17.7814L33.3548 19.6386C34.2447 20.9445 34.8783 22.2746 35.2556 23.6288C35.6328 24.983 35.7199 26.2599 35.5167 27.4594C35.3233 28.6588 34.8009 29.6793 33.9497 30.5209C33.1662 31.3044 32.2859 31.8219 31.3089 32.0734C30.3319 32.3153 29.3163 32.3443 28.2619 32.1605C27.2172 31.9767 26.1919 31.6188 25.1859 31.0868C24.1895 30.5548 23.2851 29.897 22.4725 29.1135L19.6722 30.2307ZM22.0372 27.8221L34.4575 15.4308L31.9909 12.9642L19.5851 25.3555L18.3808 28.3154C18.2938 28.5186 18.3276 28.7024 18.4824 28.8668C18.6468 29.0216 18.8258 29.0603 19.0192 28.9829L22.0372 27.8221ZM35.4732 14.4007L36.6775 13.1818C36.9774 12.8626 37.137 12.495 37.1563 12.0791C37.1757 11.6632 37.0306 11.3053 36.721 11.0054L36.3148 10.5991C36.0343 10.3283 35.6909 10.2074 35.2846 10.2364C34.8783 10.2654 34.5252 10.4298 34.2254 10.7297L33.0211 11.934L35.4732 14.4007Z" fill="url(#paint0_linear_459_16554)" shape-rendering="crispEdges"/>
</g>
<defs>
<filter id="filter0_d_459_16554" x="8.5" y="9.5" width="30.168" height="31" filterUnits="userSpaceOnUse" color-interpolation-filters="sRGB">
<feFlood flood-opacity="0" result="BackgroundImageFix"/>
<feColorMatrix in="SourceAlpha" type="matrix" values="0 0 0 0 0 0 0 0 0 0 0 0 0 0 0 0 0 0 127 0" result="hardAlpha"/>
<feOffset dy="0.25"/>
<feGaussianBlur stdDeviation="0.25"/>
<feComposite in2="hardAlpha" operator="out"/>
<feColorMatrix type="matrix" values="0 0 0 0 0 0 0 0 0 0 0 0 0 0 0 0 0 0 0.2 0"/>
<feBlend mode="normal" in2="BackgroundImageFix" result="effect1_dropShadow_459_16554"/>
<feBlend mode="normal" in="SourceGraphic" in2="effect1_dropShadow_459_16554" result="shape"/>
</filter>
<linearGradient id="paint0_linear_459_16554" x1="23.5843" y1="9.75" x2="23.5843" y2="39.75" gradientUnits="userSpaceOnUse">
<stop stop-color="white"/>
<stop offset="1" stop-color="white" stop-opacity="0.7"/>
</linearGradient>
</defs>
</svg>
