<svg width="48" height="48" viewBox="0 0 48 48" fill="none" xmlns="http://www.w3.org/2000/svg">
<path d="M0 19.2C0 12.4794 0 9.11905 1.30792 6.55211C2.4584 4.29417 4.29417 2.4584 6.55211 1.30792C9.11905 0 12.4794 0 19.2 0H28.8C35.5206 0 38.8809 0 41.4479 1.30792C43.7058 2.4584 45.5416 4.29417 46.6921 6.55211C48 9.11905 48 12.4794 48 19.2V28.8C48 35.5206 48 38.8809 46.6921 41.4479C45.5416 43.7058 43.7058 45.5416 41.4479 46.6921C38.8809 48 35.5206 48 28.8 48H19.2C12.4794 48 9.11905 48 6.55211 46.6921C4.29417 45.5416 2.4584 43.7058 1.30792 41.4479C0 38.8809 0 35.5206 0 28.8V19.2Z" fill="#5E50FD"/>
<g filter="url(#filter0_d_459_16613)">
<path d="M23.818 39.1084C24.2981 39.1084 24.8752 38.9237 25.5493 38.5544L35.7848 32.668C36.2003 32.4279 36.5327 32.174 36.782 31.9062C37.0313 31.6384 37.2067 31.3291 37.3083 30.9782C37.4191 30.6273 37.4745 30.198 37.4745 29.6901V17.8619C37.4745 17.0401 37.3268 16.4168 37.0313 15.9921C36.7451 15.5673 36.3434 15.3549 35.8263 15.3549C35.3462 15.3549 34.7829 15.5396 34.1366 15.909L23.8872 21.8231C23.4625 22.0724 23.1209 22.3309 22.8623 22.5987C22.613 22.8665 22.433 23.1758 22.3222 23.5267C22.2206 23.8776 22.1698 24.3069 22.1698 24.8148V36.6292C22.1698 37.4233 22.3083 38.0327 22.5853 38.4574C22.8716 38.8914 23.2824 39.1084 23.818 39.1084ZM18.1809 35.8951C18.4671 35.8951 18.7441 35.8074 19.0119 35.6319V21.7261C19.0119 21.5138 19.0258 21.3475 19.0535 21.2275C19.0904 21.1075 19.155 21.0059 19.2474 20.9228C19.3397 20.8305 19.4736 20.7335 19.649 20.6319L31.6989 13.679C31.7174 13.2081 31.5927 12.8388 31.3249 12.571C31.0571 12.294 30.7155 12.1555 30.3 12.1555C29.9214 12.1555 29.5198 12.2709 29.095 12.5018L18.1947 18.776C17.7423 19.0345 17.4099 19.2654 17.1975 19.4685C16.9851 19.6624 16.8466 19.9025 16.782 20.1887C16.7174 20.4657 16.685 20.8674 16.685 21.3937V33.8314C16.685 34.45 16.8235 34.9487 17.1005 35.3272C17.3868 35.7058 17.7469 35.8951 18.1809 35.8951ZM12.9177 32.8619C13.1947 32.8619 13.4717 32.7741 13.7487 32.5987V18.679C13.7487 18.4851 13.7626 18.3235 13.7903 18.1943C13.8272 18.065 13.8919 17.9588 13.9842 17.8757C14.0765 17.7834 14.2104 17.6864 14.3859 17.5849L26.4496 10.6319C26.4496 10.161 26.3157 9.79169 26.0479 9.52391C25.7894 9.2469 25.457 9.1084 25.0507 9.1084C24.6444 9.1084 24.2381 9.23305 23.8318 9.48236L12.9454 15.7427C12.493 16.0013 12.1559 16.2275 11.9343 16.4214C11.722 16.6153 11.5835 16.8554 11.5188 17.1416C11.4542 17.4279 11.4219 17.8342 11.4219 18.3605V30.7843C11.4219 31.403 11.5604 31.9062 11.8374 32.294C12.1144 32.6726 12.4745 32.8619 12.9177 32.8619Z" fill="url(#paint0_linear_459_16613)" shape-rendering="crispEdges"/>
</g>
<defs>
<filter id="filter0_d_459_16613" x="10.9219" y="8.8584" width="27.0527" height="31" filterUnits="userSpaceOnUse" color-interpolation-filters="sRGB">
<feFlood flood-opacity="0" result="BackgroundImageFix"/>
<feColorMatrix in="SourceAlpha" type="matrix" values="0 0 0 0 0 0 0 0 0 0 0 0 0 0 0 0 0 0 127 0" result="hardAlpha"/>
<feOffset dy="0.25"/>
<feGaussianBlur stdDeviation="0.25"/>
<feComposite in2="hardAlpha" operator="out"/>
<feColorMatrix type="matrix" values="0 0 0 0 0 0 0 0 0 0 0 0 0 0 0 0 0 0 0.2 0"/>
<feBlend mode="normal" in2="BackgroundImageFix" result="effect1_dropShadow_459_16613"/>
<feBlend mode="normal" in="SourceGraphic" in2="effect1_dropShadow_459_16613" result="shape"/>
</filter>
<linearGradient id="paint0_linear_459_16613" x1="24.4482" y1="9.1084" x2="24.4482" y2="39.1084" gradientUnits="userSpaceOnUse">
<stop stop-color="white"/>
<stop offset="1" stop-color="white" stop-opacity="0.7"/>
</linearGradient>
</defs>
</svg>
