<svg width="49" height="48" viewBox="0 0 49 48" fill="none" xmlns="http://www.w3.org/2000/svg">
<path d="M0.5 19.2C0.5 12.4794 0.5 9.11905 1.80792 6.55211C2.9584 4.29417 4.79417 2.4584 7.05211 1.30792C9.61905 0 12.9794 0 19.7 0H29.3C36.0206 0 39.3809 0 41.9479 1.30792C44.2058 2.4584 46.0416 4.29417 47.1921 6.55211C48.5 9.11905 48.5 12.4794 48.5 19.2V28.8C48.5 35.5206 48.5 38.8809 47.1921 41.4479C46.0416 43.7058 44.2058 45.5416 41.9479 46.6921C39.3809 48 36.0206 48 29.3 48H19.7C12.9794 48 9.61905 48 7.05211 46.6921C4.79417 45.5416 2.9584 43.7058 1.80792 41.4479C0.5 38.8809 0.5 35.5206 0.5 28.8V19.2Z" fill="#5E50FD"/>
<g clip-path="url(#clip0_459_16526)">
<g filter="url(#filter0_d_459_16526)">
<path d="M26.6291 33.7466C24.0064 33.7466 21.591 32.8586 19.6673 31.3669C18.9066 30.777 18.2227 30.0927 17.6333 29.3316C16.1444 27.4089 15.2583 24.9958 15.2583 22.3757C15.2583 16.0957 20.3491 11.0049 26.6291 11.0049C32.9091 11.0049 38 16.0958 38 22.3758C38 28.6557 32.9091 33.7466 26.6291 33.7466ZM26.6291 14.2537C22.1434 14.2537 18.5071 17.8901 18.5071 22.3758C18.5071 26.8615 22.1434 30.4978 26.6291 30.4978C31.1148 30.4978 34.7512 26.8615 34.7512 22.3758C34.7512 17.8901 31.1148 14.2537 26.6291 14.2537Z" fill="url(#paint0_linear_459_16526)" shape-rendering="crispEdges"/>
<path d="M12.4805 36.5243C12.787 36.8284 13.202 36.9979 13.6338 36.9954C14.0656 36.9979 14.4806 36.8284 14.7872 36.5243L19.6673 31.3669C18.9066 30.777 18.2227 30.0927 17.6333 29.3316L12.4805 34.2177L12.4711 34.2271C11.8393 34.8641 11.8435 35.8925 12.4805 36.5243Z" fill="url(#paint1_linear_459_16526)" shape-rendering="crispEdges"/>
</g>
</g>
<defs>
<filter id="filter0_d_459_16526" x="11.5" y="10.7549" width="27" height="26.9907" filterUnits="userSpaceOnUse" color-interpolation-filters="sRGB">
<feFlood flood-opacity="0" result="BackgroundImageFix"/>
<feColorMatrix in="SourceAlpha" type="matrix" values="0 0 0 0 0 0 0 0 0 0 0 0 0 0 0 0 0 0 127 0" result="hardAlpha"/>
<feOffset dy="0.25"/>
<feGaussianBlur stdDeviation="0.25"/>
<feComposite in2="hardAlpha" operator="out"/>
<feColorMatrix type="matrix" values="0 0 0 0 0 0 0 0 0 0 0 0 0 0 0 0 0 0 0.2 0"/>
<feBlend mode="normal" in2="BackgroundImageFix" result="effect1_dropShadow_459_16526"/>
<feBlend mode="normal" in="SourceGraphic" in2="effect1_dropShadow_459_16526" result="shape"/>
</filter>
<linearGradient id="paint0_linear_459_16526" x1="25" y1="11.0049" x2="25" y2="36.9954" gradientUnits="userSpaceOnUse">
<stop stop-color="white"/>
<stop offset="1" stop-color="white" stop-opacity="0.7"/>
</linearGradient>
<linearGradient id="paint1_linear_459_16526" x1="25" y1="11.0049" x2="25" y2="36.9954" gradientUnits="userSpaceOnUse">
<stop stop-color="white"/>
<stop offset="1" stop-color="white" stop-opacity="0.7"/>
</linearGradient>
<clipPath id="clip0_459_16526">
<rect width="26" height="26" fill="white" transform="translate(12 11)"/>
</clipPath>
</defs>
</svg>
