<svg width="48" height="48" viewBox="0 0 48 48" fill="none" xmlns="http://www.w3.org/2000/svg">
<path d="M0 19.2C0 12.4794 0 9.11905 1.30792 6.55211C2.4584 4.29417 4.29417 2.4584 6.55211 1.30792C9.11905 0 12.4794 0 19.2 0H28.8C35.5206 0 38.8809 0 41.4479 1.30792C43.7058 2.4584 45.5416 4.29417 46.6921 6.55211C48 9.11905 48 12.4794 48 19.2V28.8C48 35.5206 48 38.8809 46.6921 41.4479C45.5416 43.7058 43.7058 45.5416 41.4479 46.6921C38.8809 48 35.5206 48 28.8 48H19.2C12.4794 48 9.11905 48 6.55211 46.6921C4.29417 45.5416 2.4584 43.7058 1.30792 41.4479C0 38.8809 0 35.5206 0 28.8V19.2Z" fill="url(#paint0_linear_396_15269)"/>
<g clip-path="url(#clip0_396_15269)">
<g filter="url(#filter0_d_396_15269)">
<path d="M36.9375 20.25C37.4348 20.25 37.9117 20.0525 38.2633 19.7008C38.615 19.3492 38.8125 18.8723 38.8125 18.375V13.375C38.8125 12.2147 38.3516 11.1019 37.5311 10.2814C36.7106 9.46094 35.5978 9 34.4375 9H29.4375C28.9402 9 28.4633 9.19754 28.1117 9.54917C27.76 9.90081 27.5625 10.3777 27.5625 10.875C27.5625 11.3723 27.76 11.8492 28.1117 12.2008C28.4633 12.5525 28.9402 12.75 29.4375 12.75H32.4075L23.8125 21.3487L15.2137 12.75H18.1875C18.6848 12.75 19.1617 12.5525 19.5133 12.2008C19.865 11.8492 20.0625 11.3723 20.0625 10.875C20.0625 10.3777 19.865 9.90081 19.5133 9.54917C19.1617 9.19754 18.6848 9 18.1875 9H13.1875C12.0272 9 10.9144 9.46094 10.0939 10.2814C9.27344 11.1019 8.8125 12.2147 8.8125 13.375V18.375C8.8125 18.8723 9.01004 19.3492 9.36167 19.7008C9.71331 20.0525 10.1902 20.25 10.6875 20.25C11.1848 20.25 11.6617 20.0525 12.0133 19.7008C12.365 19.3492 12.5625 18.8723 12.5625 18.375V15.4012L21.1612 24L12.5625 32.5987V29.625C12.5625 29.1277 12.365 28.6508 12.0133 28.2992C11.6617 27.9475 11.1848 27.75 10.6875 27.75C10.1902 27.75 9.71331 27.9475 9.36167 28.2992C9.01004 28.6508 8.8125 29.1277 8.8125 29.625V34.625C8.8125 35.7853 9.27344 36.8981 10.0939 37.7186C10.9144 38.5391 12.0272 39 13.1875 39H18.1875C18.6848 39 19.1617 38.8025 19.5133 38.4508C19.865 38.0992 20.0625 37.6223 20.0625 37.125C20.0625 36.6277 19.865 36.1508 19.5133 35.7992C19.1617 35.4475 18.6848 35.25 18.1875 35.25H15.2137L23.8125 26.6513L32.4112 35.25H29.4375C28.9402 35.25 28.4633 35.4475 28.1117 35.7992C27.76 36.1508 27.5625 36.6277 27.5625 37.125C27.5625 37.6223 27.76 38.0992 28.1117 38.4508C28.4633 38.8025 28.9402 39 29.4375 39H34.4375C35.5978 39 36.7106 38.5391 37.5311 37.7186C38.3516 36.8981 38.8125 35.7853 38.8125 34.625V29.625C38.8125 29.1277 38.615 28.6508 38.2633 28.2992C37.9117 27.9475 37.4348 27.75 36.9375 27.75C36.4402 27.75 35.9633 27.9475 35.6117 28.2992C35.26 28.6508 35.0625 29.1277 35.0625 29.625V32.595L26.4638 24L35.0625 15.4012V18.375C35.0625 18.8723 35.26 19.3492 35.6117 19.7008C35.9633 20.0525 36.4402 20.25 36.9375 20.25Z" fill="url(#paint1_linear_396_15269)" shape-rendering="crispEdges"/>
</g>
</g>
<defs>
<filter id="filter0_d_396_15269" x="8.3125" y="8.75" width="31" height="31" filterUnits="userSpaceOnUse" color-interpolation-filters="sRGB">
<feFlood flood-opacity="0" result="BackgroundImageFix"/>
<feColorMatrix in="SourceAlpha" type="matrix" values="0 0 0 0 0 0 0 0 0 0 0 0 0 0 0 0 0 0 127 0" result="hardAlpha"/>
<feOffset dy="0.25"/>
<feGaussianBlur stdDeviation="0.25"/>
<feComposite in2="hardAlpha" operator="out"/>
<feColorMatrix type="matrix" values="0 0 0 0 0 0 0 0 0 0 0 0 0 0 0 0 0 0 0.2 0"/>
<feBlend mode="normal" in2="BackgroundImageFix" result="effect1_dropShadow_396_15269"/>
<feBlend mode="normal" in="SourceGraphic" in2="effect1_dropShadow_396_15269" result="shape"/>
</filter>
<linearGradient id="paint0_linear_396_15269" x1="24" y1="0" x2="24" y2="48" gradientUnits="userSpaceOnUse">
<stop stop-color="#CD4FF2"/>
<stop offset="1" stop-color="#5F4AFF"/>
</linearGradient>
<linearGradient id="paint1_linear_396_15269" x1="23.8125" y1="9" x2="23.8125" y2="39" gradientUnits="userSpaceOnUse">
<stop stop-color="white"/>
<stop offset="1" stop-color="white" stop-opacity="0.7"/>
</linearGradient>
<clipPath id="clip0_396_15269">
<rect width="30" height="30" fill="white" transform="translate(8.8125 9)"/>
</clipPath>
</defs>
</svg>
