<svg width="24" height="24" viewBox="0 0 24 24" fill="none" xmlns="http://www.w3.org/2000/svg">
<path d="M4.26045 12.751H20.5938C20.9562 12.751 21.25 12.4152 21.25 12.001C21.25 11.5868 20.9562 11.251 20.5938 11.251H4.26045C3.89804 11.251 3.6042 11.5868 3.6042 12.001C3.6042 12.4152 3.89804 12.751 4.26045 12.751Z" fill="currentColor"/>
<path d="M9.09917 17.5364C9.29079 17.5364 9.48072 17.4409 9.61038 17.2572C9.83794 16.9348 9.7937 16.4626 9.51156 16.2025L4.70109 11.7682L9.51156 7.33379C9.7937 7.07373 9.83788 6.60154 9.61038 6.27917C9.38283 5.95673 8.96967 5.90623 8.68759 6.16623L3.24383 11.1844C3.08939 11.3267 2.99959 11.5414 2.99959 11.7681C2.99959 11.9949 3.08939 12.2095 3.24383 12.3519L8.68759 17.37C8.80888 17.4819 8.95452 17.5363 9.09917 17.5364Z" fill="currentColor"/>
</svg>
