<svg width="20" height="20" viewBox="0 0 20 20" fill="none" xmlns="http://www.w3.org/2000/svg">
<g clip-path="url(#clip0_298_9205)">
<path d="M14.5335 4.00512H14.0338V2.91323C14.7222 2.66996 15.1354 1.96577 15.0118 1.24602C14.8883 0.526084 14.2643 2.38419e-07 13.5339 2.38419e-07C12.8035 2.38419e-07 12.1795 0.526084 12.0559 1.24602C11.9324 1.96577 12.3455 2.66996 13.034 2.91323V4.00512H7.03582V2.91323C7.72445 2.66996 8.13741 1.96577 8.01404 1.24602C7.89048 0.526084 7.26646 2.38419e-07 6.5361 2.38419e-07C5.80573 2.38419e-07 5.18153 0.526084 5.05816 1.24602C4.9346 1.96577 5.34756 2.66996 6.03619 2.91323V4.00512H5.53628C4.15664 4.00658 3.03857 5.12465 3.03711 6.50429V15.0016C3.03857 16.3814 4.15664 17.4995 5.53628 17.501H7.03582V19.5002C7.036 19.682 7.13467 19.8493 7.29355 19.9374C7.45244 20.0254 7.64666 20.0203 7.8006 19.924L11.678 17.501H14.5335C15.9133 17.4997 17.0316 16.3814 17.0329 15.0016V6.50429C17.0316 5.12465 15.9133 4.0064 14.5335 4.00512ZM7.53573 7.0042C8.36348 7.00511 9.03435 7.67599 9.03527 8.50374C9.03527 8.77978 8.81158 9.00346 8.53536 9.00346C8.25932 9.00346 8.03564 8.77978 8.03564 8.50374C8.03564 8.2277 7.81177 8.00383 7.53573 8.00383C7.25969 8.00383 7.03582 8.2277 7.03582 8.50374C7.03582 8.77978 6.81213 9.00346 6.5361 9.00346C6.26006 9.00346 6.03619 8.77978 6.03619 8.50374C6.0371 7.67599 6.70798 7.00511 7.53573 7.0042ZM13.7574 13.1995C12.5941 13.7481 11.321 14.0247 10.0349 14.0078C8.7488 14.0247 7.47587 13.7483 6.31241 13.1995C6.06548 13.0761 5.96553 12.7757 6.08891 12.5288C6.21247 12.2819 6.51267 12.1817 6.7596 12.3053C8.6267 13.2385 11.4436 13.2385 13.3104 12.3053C13.5573 12.1817 13.8575 12.2819 13.9811 12.5288C14.1045 12.7757 14.0043 13.0761 13.7574 13.1995ZM13.5339 9.00346C13.4014 9.00364 13.2741 8.95093 13.1804 8.85721C13.0867 8.76348 13.034 8.63627 13.034 8.50374C13.034 8.2277 12.8103 8.00383 12.5343 8.00383C12.2582 8.00383 12.0343 8.2277 12.0343 8.50374C12.0343 8.77978 11.8107 9.00346 11.5344 9.00346C11.2584 9.00346 11.0347 8.77978 11.0347 8.50374C11.0347 7.67544 11.706 7.0042 12.5343 7.0042C13.3624 7.0042 14.0338 7.67544 14.0338 8.50374C14.0338 8.63627 13.9813 8.76348 13.8874 8.85721C13.7936 8.95093 13.6664 9.00364 13.5339 9.00346Z" fill="white"/>
<path d="M18.5312 8.00383H18.0312V13.0024H18.5312C19.3589 13.0014 20.0298 12.3306 20.0307 11.5028V9.50337C20.0298 8.67562 19.3589 8.00474 18.5312 8.00383Z" fill="white"/>
<path d="M0.0371094 9.50337V11.5028C0.0380246 12.3306 0.7089 13.0014 1.53665 13.0024H2.03656V8.00383H1.53665C0.7089 8.00474 0.0380246 8.67562 0.0371094 9.50337Z" fill="white"/>
</g>
<defs>
<clipPath id="clip0_298_9205">
<rect width="20" height="20" fill="white"/>
</clipPath>
</defs>
</svg>
