<svg width="20" height="20" viewBox="0 0 20 20" fill="none" xmlns="http://www.w3.org/2000/svg">
<path d="M19 2.5H1C0.801088 2.5 0.610322 2.57902 0.46967 2.71967C0.329018 2.86032 0.25 3.05109 0.25 3.25V16C0.25 16.3978 0.408035 16.7794 0.68934 17.0607C0.970644 17.342 1.35218 17.5 1.75 17.5H18.25C18.6478 17.5 19.0294 17.342 19.3107 17.0607C19.592 16.7794 19.75 16.3978 19.75 16V3.25C19.75 3.05109 19.671 2.86032 19.5303 2.71967C19.3897 2.57902 19.1989 2.5 19 2.5ZM7.25406 10L1.75 15.0447V4.95531L7.25406 10ZM8.36406 11.0172L9.48906 12.0531C9.62743 12.1801 9.80842 12.2506 9.99625 12.2506C10.1841 12.2506 10.3651 12.1801 10.5034 12.0531L11.6284 11.0172L17.0659 16H2.92844L8.36406 11.0172ZM12.7459 10L18.25 4.95438V15.0456L12.7459 10Z" fill="currentColor"/>
</svg>
