<svg width="20" height="20" viewBox="0 0 20 20" fill="none" xmlns="http://www.w3.org/2000/svg">
<path d="M16.8584 9.23203C16.8347 9.13186 16.7867 9.03908 16.7185 8.96194C16.6504 8.8848 16.5642 8.82569 16.4678 8.78985L11.967 7.10156L13.1123 1.37266C13.1382 1.23955 13.1202 1.10162 13.0608 0.979674C13.0015 0.857732 12.9041 0.758397 12.7834 0.696659C12.6626 0.63492 12.5251 0.614128 12.3915 0.637421C12.2579 0.660713 12.1355 0.726826 12.0427 0.825782L3.29275 10.2008C3.22168 10.2757 3.17027 10.367 3.14311 10.4666C3.11595 10.5662 3.11389 10.671 3.1371 10.7716C3.16031 10.8722 3.20808 10.9654 3.27614 11.0431C3.3442 11.1207 3.43043 11.1802 3.52713 11.2164L8.02947 12.9047L6.88728 18.6273C6.86135 18.7605 6.87941 18.8984 6.93874 19.0203C6.99808 19.1423 7.09547 19.2416 7.21621 19.3033C7.33695 19.3651 7.4745 19.3859 7.6081 19.3626C7.74169 19.3393 7.86409 19.2732 7.95681 19.1742L16.7068 9.79922C16.7766 9.72432 16.8269 9.63343 16.8533 9.53453C16.8798 9.43563 16.8815 9.33176 16.8584 9.23203ZM8.54431 16.7188L9.36228 12.6266C9.39156 12.4814 9.36836 12.3306 9.29682 12.201C9.22529 12.0714 9.11005 11.9713 8.97166 11.9188L4.84353 10.368L11.4545 3.28516L10.6373 7.37735C10.608 7.52248 10.6312 7.67329 10.7027 7.80291C10.7743 7.93254 10.8895 8.03256 11.0279 8.08516L15.1529 9.63203L8.54431 16.7188Z" fill="#1B1B1E"/>
</svg>
