<svg width="20" height="20" viewBox="0 0 20 20" fill="none" xmlns="http://www.w3.org/2000/svg">
<path d="M19.0167 14.0871C18.8619 15.2633 18.2843 16.343 17.3916 17.1244C16.499 17.9059 15.3524 18.3357 14.166 18.3336C7.27366 18.3336 1.66602 12.726 1.66602 5.83359C1.6639 4.64721 2.0937 3.50062 2.87517 2.60798C3.65663 1.71534 4.73631 1.13768 5.91255 0.982897C6.20999 0.946579 6.5112 1.00743 6.77122 1.15637C7.03124 1.30531 7.23611 1.53434 7.35526 1.80929L9.18859 5.90217V5.91258C9.27981 6.12305 9.31749 6.35283 9.29825 6.5814C9.27901 6.80997 9.20346 7.03022 9.07835 7.22248C9.06272 7.24592 9.04623 7.26762 9.02887 7.28932L7.22158 9.43168C7.87175 10.7529 9.2537 12.1227 10.5922 12.7746L12.7051 10.9768C12.7258 10.9594 12.7476 10.9431 12.7702 10.9282C12.9623 10.8001 13.1833 10.7219 13.4132 10.7007C13.6431 10.6794 13.8747 10.7159 14.087 10.8067L14.0983 10.8119L18.1877 12.6444C18.4632 12.7631 18.6927 12.9678 18.8422 13.2278C18.9916 13.4879 19.0528 13.7893 19.0167 14.0871Z" fill="currentColor"/>
</svg>
