<svg width="32" height="32" viewBox="0 0 32 32" fill="none" xmlns="http://www.w3.org/2000/svg">
<g clip-path="url(#clip0_461_37061)">
<path d="M18.0051 27.9956C14.7771 27.9956 11.8043 26.9028 9.43663 25.0668C8.50037 24.3408 7.65873 23.4986 6.93333 22.5619C5.1008 20.1954 4.01016 17.2254 4.01016 14.0007C4.01016 6.2715 10.2759 0.00585938 18.0051 0.00585938C25.7343 0.00585938 32 6.27157 32 14.0008C32 21.73 25.7342 27.9956 18.0051 27.9956ZM18.0051 4.00443C12.4842 4.00443 8.00873 8.47993 8.00873 14.0008C8.00873 19.5216 12.4842 23.9971 18.0051 23.9971C23.5259 23.9971 28.0014 19.5216 28.0014 14.0008C28.0014 8.47993 23.5259 4.00443 18.0051 4.00443Z" fill="white"/>
<path d="M0.591394 31.4144C0.968676 31.7887 1.47944 31.9973 2.01087 31.9942C2.5423 31.9973 3.05306 31.7887 3.43035 31.4144L9.43663 25.0668C8.50037 24.3408 7.65873 23.4986 6.93333 22.5619L0.591394 28.5755L0.579817 28.587C-0.197763 29.371 -0.192595 30.6368 0.591394 31.4144Z" fill="white"/>
<path d="M17.8469 8.7998V18.646M22.77 13.7229L12.9238 13.7229" stroke="white" stroke-width="3" stroke-linecap="round"/>
</g>
<defs>
<clipPath id="clip0_461_37061">
<rect width="32" height="32" fill="white"/>
</clipPath>
</defs>
</svg>
