<svg width="41" height="40" viewBox="0 0 41 40" fill="none" xmlns="http://www.w3.org/2000/svg">
<path d="M0.5 16C0.5 10.3995 0.5 7.59921 1.58993 5.46009C2.54867 3.57847 4.07847 2.04867 5.96009 1.08993C8.09921 0 10.8995 0 16.5 0H24.5C30.1005 0 32.9008 0 35.0399 1.08993C36.9215 2.04867 38.4513 3.57847 39.4101 5.46009C40.5 7.59921 40.5 10.3995 40.5 16V24C40.5 29.6005 40.5 32.4008 39.4101 34.5399C38.4513 36.4215 36.9215 37.9513 35.0399 38.9101C32.9008 40 30.1005 40 24.5 40H16.5C10.8995 40 8.09921 40 5.96009 38.9101C4.07847 37.9513 2.54867 36.4215 1.58993 34.5399C0.5 32.4008 0.5 29.6005 0.5 24V16Z" fill="url(#paint0_linear_328_59986)"/>
<path d="M0.5 16C0.5 10.3995 0.5 7.59921 1.58993 5.46009C2.54867 3.57847 4.07847 2.04867 5.96009 1.08993C8.09921 0 10.8995 0 16.5 0H24.5C30.1005 0 32.9008 0 35.0399 1.08993C36.9215 2.04867 38.4513 3.57847 39.4101 5.46009C40.5 7.59921 40.5 10.3995 40.5 16V24C40.5 29.6005 40.5 32.4008 39.4101 34.5399C38.4513 36.4215 36.9215 37.9513 35.0399 38.9101C32.9008 40 30.1005 40 24.5 40H16.5C10.8995 40 8.09921 40 5.96009 38.9101C4.07847 37.9513 2.54867 36.4215 1.58993 34.5399C0.5 32.4008 0.5 29.6005 0.5 24V16Z" fill="url(#paint1_linear_328_59986)" fill-opacity="0.64"/>
<g clip-path="url(#clip0_328_59986)">
<g filter="url(#filter0_d_328_59986)">
<path d="M31.0773 17.7384L20.6769 7.33647C20.0635 6.72459 19.0712 6.73183 18.4659 7.33569C17.8571 7.94606 17.8571 8.9371 18.4659 9.54668L28.8678 19.9479C29.4772 20.5573 30.4679 20.5573 31.0773 19.9479C31.6883 19.3369 31.6883 18.3494 31.0773 17.7384Z" fill="url(#paint2_linear_328_59986)" shape-rendering="crispEdges"/>
<path d="M17.6942 10.9846L17.616 11.377C17.0646 14.1352 15.7244 16.7556 13.9119 18.8794L19.5706 24.5381C21.6941 22.7259 24.2784 21.3498 27.0368 20.7977L27.4299 20.7195L17.6942 10.9846Z" fill="url(#paint3_linear_328_59986)" shape-rendering="crispEdges"/>
<path d="M12.8744 20.0515L9.00709 23.9181C8.09329 24.8319 8.08949 26.3154 9.00709 27.233L11.2166 29.4425C12.1304 30.3563 13.6139 30.3601 14.5315 29.4425L18.3985 25.5755L12.8744 20.0515ZM13.4268 26.1283C13.1217 26.4335 12.6273 26.4335 12.3221 26.1283C12.0169 25.8232 12.0169 25.3287 12.3221 25.0236L13.4268 23.9188C13.732 23.6137 14.2264 23.6137 14.5316 23.9188C14.8367 24.224 14.8367 24.7184 14.5316 25.0236L13.4268 26.1283Z" fill="url(#paint4_linear_328_59986)" shape-rendering="crispEdges"/>
<path d="M21.6605 29.8582L22.7232 28.7955C23.6409 27.878 23.6378 26.3944 22.7233 25.4813L21.9339 24.6914C21.4976 24.9845 21.0809 25.3029 20.6758 25.6427L21.6185 26.5868C21.923 26.8897 21.9251 27.3826 21.6185 27.6908L20.5382 28.7711L18.9506 27.2329L16.741 29.4425L20.2857 32.8772C20.8906 33.4837 21.8837 33.4871 22.4944 32.8765C23.1039 32.2669 23.1039 31.2758 22.4944 30.6662L21.6605 29.8582Z" fill="url(#paint5_linear_328_59986)" shape-rendering="crispEdges"/>
<path d="M24.8166 6.66663C24.3848 6.66663 24.0354 7.01605 24.0354 7.44788V9.01038C24.0354 9.4422 24.3848 9.79163 24.8166 9.79163C25.2484 9.79163 25.5979 9.4422 25.5979 9.01038V7.44788C25.5979 7.01605 25.2484 6.66663 24.8166 6.66663Z" fill="url(#paint6_linear_328_59986)" shape-rendering="crispEdges"/>
<path d="M31.0666 12.9166H29.5041C29.0723 12.9166 28.7229 13.2661 28.7229 13.6979C28.7229 14.1297 29.0723 14.4791 29.5041 14.4791H31.0666C31.4984 14.4791 31.8479 14.1297 31.8479 13.6979C31.8479 13.2661 31.4984 12.9166 31.0666 12.9166Z" fill="url(#paint7_linear_328_59986)" shape-rendering="crispEdges"/>
<path d="M30.0565 8.45798C29.7513 8.15283 29.2569 8.15283 28.9517 8.45798L27.3892 10.0205C27.0841 10.3256 27.0841 10.8201 27.3892 11.1252C27.6944 11.4304 28.1888 11.4304 28.494 11.1252L30.0565 9.56273C30.3616 9.25757 30.3616 8.76314 30.0565 8.45798Z" fill="url(#paint8_linear_328_59986)" shape-rendering="crispEdges"/>
</g>
</g>
<defs>
<filter id="filter0_d_328_59986" x="7.82031" y="6.41663" width="24.5273" height="27.6666" filterUnits="userSpaceOnUse" color-interpolation-filters="sRGB">
<feFlood flood-opacity="0" result="BackgroundImageFix"/>
<feColorMatrix in="SourceAlpha" type="matrix" values="0 0 0 0 0 0 0 0 0 0 0 0 0 0 0 0 0 0 127 0" result="hardAlpha"/>
<feOffset dy="0.25"/>
<feGaussianBlur stdDeviation="0.25"/>
<feComposite in2="hardAlpha" operator="out"/>
<feColorMatrix type="matrix" values="0 0 0 0 0 0 0 0 0 0 0 0 0 0 0 0 0 0 0.2 0"/>
<feBlend mode="normal" in2="BackgroundImageFix" result="effect1_dropShadow_328_59986"/>
<feBlend mode="normal" in="SourceGraphic" in2="effect1_dropShadow_328_59986" result="shape"/>
</filter>
<linearGradient id="paint0_linear_328_59986" x1="20.5" y1="0" x2="20.5" y2="40" gradientUnits="userSpaceOnUse">
<stop stop-color="#FD6550"/>
<stop offset="1" stop-color="#FF946A"/>
</linearGradient>
<linearGradient id="paint1_linear_328_59986" x1="0.5" y1="40" x2="40.5" y2="40" gradientUnits="userSpaceOnUse">
<stop stop-color="#FF7347"/>
<stop offset="1" stop-color="#E336FF"/>
</linearGradient>
<linearGradient id="paint2_linear_328_59986" x1="20.0841" y1="6.66663" x2="20.0841" y2="33.3333" gradientUnits="userSpaceOnUse">
<stop stop-color="white"/>
<stop offset="1" stop-color="white" stop-opacity="0.7"/>
</linearGradient>
<linearGradient id="paint3_linear_328_59986" x1="20.0841" y1="6.66663" x2="20.0841" y2="33.3333" gradientUnits="userSpaceOnUse">
<stop stop-color="white"/>
<stop offset="1" stop-color="white" stop-opacity="0.7"/>
</linearGradient>
<linearGradient id="paint4_linear_328_59986" x1="20.0841" y1="6.66663" x2="20.0841" y2="33.3333" gradientUnits="userSpaceOnUse">
<stop stop-color="white"/>
<stop offset="1" stop-color="white" stop-opacity="0.7"/>
</linearGradient>
<linearGradient id="paint5_linear_328_59986" x1="20.0841" y1="6.66663" x2="20.0841" y2="33.3333" gradientUnits="userSpaceOnUse">
<stop stop-color="white"/>
<stop offset="1" stop-color="white" stop-opacity="0.7"/>
</linearGradient>
<linearGradient id="paint6_linear_328_59986" x1="20.0841" y1="6.66663" x2="20.0841" y2="33.3333" gradientUnits="userSpaceOnUse">
<stop stop-color="white"/>
<stop offset="1" stop-color="white" stop-opacity="0.7"/>
</linearGradient>
<linearGradient id="paint7_linear_328_59986" x1="20.0841" y1="6.66663" x2="20.0841" y2="33.3333" gradientUnits="userSpaceOnUse">
<stop stop-color="white"/>
<stop offset="1" stop-color="white" stop-opacity="0.7"/>
</linearGradient>
<linearGradient id="paint8_linear_328_59986" x1="20.0841" y1="6.66663" x2="20.0841" y2="33.3333" gradientUnits="userSpaceOnUse">
<stop stop-color="white"/>
<stop offset="1" stop-color="white" stop-opacity="0.7"/>
</linearGradient>
<clipPath id="clip0_328_59986">
<rect width="26.6667" height="26.6667" fill="white" transform="translate(6.75 6.66663)"/>
</clipPath>
</defs>
</svg>
