<svg width="40" height="40" viewBox="0 0 40 40" fill="none" xmlns="http://www.w3.org/2000/svg">
<path d="M0 16C0 10.3995 0 7.59921 1.08993 5.46009C2.04867 3.57847 3.57847 2.04867 5.46009 1.08993C7.59921 0 10.3995 0 16 0H24C29.6005 0 32.4008 0 34.5399 1.08993C36.4215 2.04867 37.9513 3.57847 38.9101 5.46009C40 7.59921 40 10.3995 40 16V24C40 29.6005 40 32.4008 38.9101 34.5399C37.9513 36.4215 36.4215 37.9513 34.5399 38.9101C32.4008 40 29.6005 40 24 40H16C10.3995 40 7.59921 40 5.46009 38.9101C3.57847 37.9513 2.04867 36.4215 1.08993 34.5399C0 32.4008 0 29.6005 0 24V16Z" fill="url(#paint0_linear_328_60050)"/>
<path d="M0 16C0 10.3995 0 7.59921 1.08993 5.46009C2.04867 3.57847 3.57847 2.04867 5.46009 1.08993C7.59921 0 10.3995 0 16 0H24C29.6005 0 32.4008 0 34.5399 1.08993C36.4215 2.04867 37.9513 3.57847 38.9101 5.46009C40 7.59921 40 10.3995 40 16V24C40 29.6005 40 32.4008 38.9101 34.5399C37.9513 36.4215 36.4215 37.9513 34.5399 38.9101C32.4008 40 29.6005 40 24 40H16C10.3995 40 7.59921 40 5.46009 38.9101C3.57847 37.9513 2.04867 36.4215 1.08993 34.5399C0 32.4008 0 29.6005 0 24V16Z" fill="url(#paint1_linear_328_60050)" fill-opacity="0.64"/>
<g clip-path="url(#clip0_328_60050)">
<g filter="url(#filter0_d_328_60050)">
<path d="M32.5007 12.9688V9.0625C32.5007 7.77016 31.4492 6.71875 30.1569 6.71875H8.17773C6.88539 6.71875 5.83398 7.77016 5.83398 9.0625V12.9688H32.5007ZM23.8548 9.84375H28.5423C28.9738 9.84375 29.3236 10.1935 29.3236 10.625C29.3236 11.0565 28.9738 11.4062 28.5423 11.4062H23.8548C23.4234 11.4062 23.0736 11.0565 23.0736 10.625C23.0736 10.1935 23.4234 9.84375 23.8548 9.84375ZM16.0423 9.84375C16.4738 9.84375 16.8236 10.1935 16.8236 10.625C16.8236 11.0565 16.4738 11.4062 16.0423 11.4062C15.6109 11.4062 15.2611 11.0565 15.2611 10.625C15.2611 10.1935 15.6109 9.84375 16.0423 9.84375ZM12.9173 9.84375C13.3488 9.84375 13.6986 10.1935 13.6986 10.625C13.6986 11.0565 13.3488 11.4062 12.9173 11.4062C12.4859 11.4062 12.1361 11.0565 12.1361 10.625C12.1361 10.1935 12.4859 9.84375 12.9173 9.84375ZM9.79232 9.84375C10.2238 9.84375 10.5736 10.1935 10.5736 10.625C10.5736 11.0565 10.2238 11.4062 9.79232 11.4062C9.36086 11.4062 9.01107 11.0565 9.01107 10.625C9.01107 10.1935 9.36086 9.84375 9.79232 9.84375Z" fill="url(#paint2_linear_328_60050)" shape-rendering="crispEdges"/>
<path d="M5.83398 14.5312V30.9375C5.83398 32.2298 6.88539 33.2812 8.17773 33.2812H30.1569C31.4492 33.2812 32.5007 32.2298 32.5007 30.9375V14.5312H5.83398ZM14.9678 25.6399C15.3048 25.9095 15.3594 26.4011 15.0899 26.738C14.8204 27.0749 14.3287 27.1296 13.9918 26.86L10.0855 23.735C9.69497 23.4227 9.69471 22.8275 10.0855 22.5149L13.9918 19.3899C14.3286 19.1204 14.8203 19.1749 15.0899 19.5119C15.3594 19.8488 15.3048 20.3405 14.9678 20.6099L11.8242 23.125L14.9678 25.6399ZM22.2291 17.964L17.5416 28.9015C17.3717 29.298 16.9125 29.4819 16.5158 29.3118C16.1192 29.1419 15.9355 28.6826 16.1055 28.286L20.793 17.3485C20.963 16.9519 21.4223 16.7682 21.8188 16.9382C22.2154 17.1081 22.3991 17.5674 22.2291 17.964ZM28.2491 23.7351L24.3428 26.8601C24.0065 27.1292 23.5147 27.0755 23.2448 26.7381C22.9752 26.4011 23.0298 25.9095 23.3668 25.64L26.5104 23.125L23.3668 20.6101C23.0298 20.3405 22.9752 19.8489 23.2448 19.512C23.5142 19.1751 24.0059 19.1204 24.3428 19.39L28.2491 22.515C28.6397 22.8273 28.6399 23.4224 28.2491 23.7351Z" fill="url(#paint3_linear_328_60050)" shape-rendering="crispEdges"/>
</g>
</g>
<defs>
<filter id="filter0_d_328_60050" x="5.33398" y="6.46875" width="27.666" height="27.5625" filterUnits="userSpaceOnUse" color-interpolation-filters="sRGB">
<feFlood flood-opacity="0" result="BackgroundImageFix"/>
<feColorMatrix in="SourceAlpha" type="matrix" values="0 0 0 0 0 0 0 0 0 0 0 0 0 0 0 0 0 0 127 0" result="hardAlpha"/>
<feOffset dy="0.25"/>
<feGaussianBlur stdDeviation="0.25"/>
<feComposite in2="hardAlpha" operator="out"/>
<feColorMatrix type="matrix" values="0 0 0 0 0 0 0 0 0 0 0 0 0 0 0 0 0 0 0.2 0"/>
<feBlend mode="normal" in2="BackgroundImageFix" result="effect1_dropShadow_328_60050"/>
<feBlend mode="normal" in="SourceGraphic" in2="effect1_dropShadow_328_60050" result="shape"/>
</filter>
<linearGradient id="paint0_linear_328_60050" x1="20" y1="0" x2="20" y2="40" gradientUnits="userSpaceOnUse">
<stop stop-color="#FD6550"/>
<stop offset="1" stop-color="#FF946A"/>
</linearGradient>
<linearGradient id="paint1_linear_328_60050" x1="0" y1="40" x2="40" y2="40" gradientUnits="userSpaceOnUse">
<stop stop-color="#FF7347"/>
<stop offset="1" stop-color="#E336FF"/>
</linearGradient>
<linearGradient id="paint2_linear_328_60050" x1="19.1673" y1="6.71875" x2="19.1673" y2="33.2812" gradientUnits="userSpaceOnUse">
<stop stop-color="white"/>
<stop offset="1" stop-color="white" stop-opacity="0.7"/>
</linearGradient>
<linearGradient id="paint3_linear_328_60050" x1="19.1673" y1="6.71875" x2="19.1673" y2="33.2812" gradientUnits="userSpaceOnUse">
<stop stop-color="white"/>
<stop offset="1" stop-color="white" stop-opacity="0.7"/>
</linearGradient>
<clipPath id="clip0_328_60050">
<rect width="26.6667" height="26.6667" fill="white" transform="translate(5.83398 6.66663)"/>
</clipPath>
</defs>
</svg>
