<svg width="40" height="40" viewBox="0 0 40 40" fill="none" xmlns="http://www.w3.org/2000/svg">
<path d="M0 16C0 10.3995 0 7.59921 1.08993 5.46009C2.04867 3.57847 3.57847 2.04867 5.46009 1.08993C7.59921 0 10.3995 0 16 0H24C29.6005 0 32.4008 0 34.5399 1.08993C36.4215 2.04867 37.9513 3.57847 38.9101 5.46009C40 7.59921 40 10.3995 40 16V24C40 29.6005 40 32.4008 38.9101 34.5399C37.9513 36.4215 36.4215 37.9513 34.5399 38.9101C32.4008 40 29.6005 40 24 40H16C10.3995 40 7.59921 40 5.46009 38.9101C3.57847 37.9513 2.04867 36.4215 1.08993 34.5399C0 32.4008 0 29.6005 0 24V16Z" fill="url(#paint0_linear_328_60094)"/>
<path d="M0 16C0 10.3995 0 7.59921 1.08993 5.46009C2.04867 3.57847 3.57847 2.04867 5.46009 1.08993C7.59921 0 10.3995 0 16 0H24C29.6005 0 32.4008 0 34.5399 1.08993C36.4215 2.04867 37.9513 3.57847 38.9101 5.46009C40 7.59921 40 10.3995 40 16V24C40 29.6005 40 32.4008 38.9101 34.5399C37.9513 36.4215 36.4215 37.9513 34.5399 38.9101C32.4008 40 29.6005 40 24 40H16C10.3995 40 7.59921 40 5.46009 38.9101C3.57847 37.9513 2.04867 36.4215 1.08993 34.5399C0 32.4008 0 29.6005 0 24V16Z" fill="url(#paint1_linear_328_60094)" fill-opacity="0.64"/>
<g clip-path="url(#clip0_328_60094)">
<g filter="url(#filter0_d_328_60094)">
<path d="M32.3727 27.6166C31.8464 27.4661 31.3671 27.1841 30.9801 26.797C30.593 26.41 30.3109 25.9307 30.1605 25.4044C30.0813 25.1281 29.9144 24.885 29.6849 24.7119C29.4553 24.5389 29.1757 24.4453 28.8882 24.4453C28.6008 24.4453 28.3211 24.5389 28.0916 24.7119C27.8621 24.885 27.6951 25.1281 27.616 25.4044C27.4655 25.9307 27.1835 26.41 26.7964 26.797C26.4094 27.1841 25.9301 27.4661 25.4038 27.6166C25.1274 27.6957 24.8844 27.8627 24.7113 28.0922C24.5383 28.3218 24.4447 28.6014 24.4447 28.8888C24.4447 29.1763 24.5383 29.4559 24.7113 29.6855C24.8844 29.915 25.1274 30.082 25.4038 30.1611C25.9301 30.3116 26.4094 30.5936 26.7964 30.9807C27.1835 31.3677 27.4655 31.847 27.616 32.3733C27.6951 32.6496 27.8621 32.8927 28.0916 33.0658C28.3211 33.2388 28.6008 33.3324 28.8882 33.3324C29.1757 33.3324 29.4553 33.2388 29.6849 33.0658C29.9144 32.8927 30.0813 32.6496 30.1605 32.3733C30.3109 31.847 30.593 31.3677 30.9801 30.9807C31.3671 30.5936 31.8464 30.3116 32.3727 30.1611C32.649 30.082 32.8921 29.915 33.0651 29.6855C33.2382 29.4559 33.3318 29.1763 33.3318 28.8888C33.3318 28.6014 33.2382 28.3218 33.0651 28.0922C32.8921 27.8627 32.649 27.6957 32.3727 27.6166Z" fill="url(#paint2_linear_328_60094)" shape-rendering="crispEdges"/>
<path d="M23.4849 9.83885C22.9584 9.68853 22.4789 9.40653 22.0917 9.01947C21.7044 8.6324 21.4222 8.15304 21.2716 7.62663C21.1925 7.35028 21.0255 7.1072 20.796 6.93416C20.5664 6.76112 20.2868 6.66752 19.9993 6.66752C19.7119 6.66752 19.4323 6.76112 19.2027 6.93416C18.9732 7.1072 18.8062 7.35028 18.7271 7.62663C18.5766 8.15291 18.2946 8.63219 17.9075 9.01924C17.5205 9.40629 17.0412 9.68837 16.5149 9.83885C16.2386 9.91797 15.9955 10.0849 15.8224 10.3144C15.6494 10.544 15.5558 10.8236 15.5558 11.1111C15.5558 11.3985 15.6494 11.6782 15.8224 11.9077C15.9955 12.1372 16.2386 12.3042 16.5149 12.3833C17.0412 12.5338 17.5205 12.8158 17.9075 13.2029C18.2946 13.59 18.5766 14.0692 18.7271 14.5955C18.8062 14.8719 18.9732 15.1149 19.2027 15.288C19.4323 15.461 19.7119 15.5546 19.9993 15.5546C20.2868 15.5546 20.5664 15.461 20.796 15.288C21.0255 15.1149 21.1925 14.8719 21.2716 14.5955C21.4221 14.0692 21.7041 13.59 22.0912 13.2029C22.4782 12.8158 22.9575 12.5338 23.4838 12.3833C23.7602 12.3043 24.0033 12.1375 24.1765 11.908C24.3496 11.6785 24.4433 11.3989 24.4435 11.1115C24.4436 10.824 24.3501 10.5444 24.1772 10.3147C24.0042 10.0851 23.7612 9.91809 23.4849 9.83885Z" fill="url(#paint3_linear_328_60094)" shape-rendering="crispEdges"/>
<path d="M7.6249 30.1611C8.15119 30.3116 8.63046 30.5936 9.01752 30.9807C9.40457 31.3677 9.68664 31.847 9.83713 32.3733C9.91624 32.6496 10.0832 32.8927 10.3127 33.0658C10.5423 33.2388 10.8219 33.3324 11.1093 33.3324C11.3968 33.3324 11.6764 33.2388 11.906 33.0658C12.1355 32.8927 12.3025 32.6496 12.3816 32.3733C12.5321 31.847 12.8141 31.3677 13.2012 30.9807C13.5882 30.5936 14.0675 30.3116 14.5938 30.1611C14.8701 30.082 15.1132 29.915 15.2863 29.6855C15.4593 29.4559 15.5529 29.1763 15.5529 28.8888C15.5529 28.6014 15.4593 28.3218 15.2863 28.0922C15.1132 27.8627 14.8701 27.6957 14.5938 27.6166C14.0675 27.4661 13.5882 27.1841 13.2012 26.797C12.8141 26.41 12.5321 25.9307 12.3816 25.4044C12.3025 25.1281 12.1355 24.885 11.906 24.7119C11.6764 24.5389 11.3968 24.4453 11.1093 24.4453C10.8219 24.4453 10.5423 24.5389 10.3127 24.7119C10.0832 24.885 9.91624 25.1281 9.83713 25.4044C9.68674 25.9306 9.40484 26.4097 9.01799 26.7968C8.63114 27.1838 8.1521 27.466 7.62602 27.6166C7.34963 27.6956 7.10648 27.8625 6.93334 28.0919C6.7602 28.3214 6.66648 28.601 6.66635 28.8884C6.66623 29.1759 6.7597 29.4556 6.93265 29.6852C7.10559 29.9148 7.34859 30.0818 7.6249 30.1611Z" fill="url(#paint4_linear_328_60094)" shape-rendering="crispEdges"/>
<path d="M12.7771 23.3333C13.6976 23.3333 14.4438 22.5871 14.4438 21.6666C14.4438 20.7462 13.6976 20 12.7771 20C11.8567 20 11.1105 20.7462 11.1105 21.6666C11.1105 22.5871 11.8567 23.3333 12.7771 23.3333Z" fill="url(#paint5_linear_328_60094)" shape-rendering="crispEdges"/>
<path d="M8.33268 18.8888C9.25316 18.8888 9.99935 18.1427 9.99935 17.2222C9.99935 16.3017 9.25316 15.5555 8.33268 15.5555C7.41221 15.5555 6.66602 16.3017 6.66602 17.2222C6.66602 18.1427 7.41221 18.8888 8.33268 18.8888Z" fill="url(#paint6_linear_328_60094)" shape-rendering="crispEdges"/>
<path d="M12.7771 14.4444C13.6976 14.4444 14.4438 13.6982 14.4438 12.7777C14.4438 11.8573 13.6976 11.1111 12.7771 11.1111C11.8567 11.1111 11.1105 11.8573 11.1105 12.7777C11.1105 13.6982 11.8567 14.4444 12.7771 14.4444Z" fill="url(#paint7_linear_328_60094)" shape-rendering="crispEdges"/>
<path d="M8.33268 9.99996C9.25316 9.99996 9.99935 9.25377 9.99935 8.33329C9.99935 7.41282 9.25316 6.66663 8.33268 6.66663C7.41221 6.66663 6.66602 7.41282 6.66602 8.33329C6.66602 9.25377 7.41221 9.99996 8.33268 9.99996Z" fill="url(#paint8_linear_328_60094)" shape-rendering="crispEdges"/>
<path d="M31.666 23.3333C32.5865 23.3333 33.3327 22.5871 33.3327 21.6666C33.3327 20.7462 32.5865 20 31.666 20C30.7455 20 29.9993 20.7462 29.9993 21.6666C29.9993 22.5871 30.7455 23.3333 31.666 23.3333Z" fill="url(#paint9_linear_328_60094)" shape-rendering="crispEdges"/>
<path d="M27.2216 18.8888C28.142 18.8888 28.8882 18.1427 28.8882 17.2222C28.8882 16.3017 28.142 15.5555 27.2216 15.5555C26.3011 15.5555 25.5549 16.3017 25.5549 17.2222C25.5549 18.1427 26.3011 18.8888 27.2216 18.8888Z" fill="url(#paint10_linear_328_60094)" shape-rendering="crispEdges"/>
<path d="M31.666 14.4444C32.5865 14.4444 33.3327 13.6982 33.3327 12.7777C33.3327 11.8573 32.5865 11.1111 31.666 11.1111C30.7455 11.1111 29.9993 11.8573 29.9993 12.7777C29.9993 13.6982 30.7455 14.4444 31.666 14.4444Z" fill="url(#paint11_linear_328_60094)" shape-rendering="crispEdges"/>
<path d="M27.2216 9.99996C28.142 9.99996 28.8882 9.25377 28.8882 8.33329C28.8882 7.41282 28.142 6.66663 27.2216 6.66663C26.3011 6.66663 25.5549 7.41282 25.5549 8.33329C25.5549 9.25377 26.3011 9.99996 27.2216 9.99996Z" fill="url(#paint12_linear_328_60094)" shape-rendering="crispEdges"/>
<path d="M22.7771 33.3333C23.6976 33.3333 24.4438 32.5871 24.4438 31.6666C24.4438 30.7462 23.6976 30 22.7771 30C21.8567 30 21.1105 30.7462 21.1105 31.6666C21.1105 32.5871 21.8567 33.3333 22.7771 33.3333Z" fill="url(#paint13_linear_328_60094)" shape-rendering="crispEdges"/>
<path d="M18.3327 28.8888C19.2532 28.8888 19.9993 28.1427 19.9993 27.2222C19.9993 26.3017 19.2532 25.5555 18.3327 25.5555C17.4122 25.5555 16.666 26.3017 16.666 27.2222C16.666 28.1427 17.4122 28.8888 18.3327 28.8888Z" fill="url(#paint14_linear_328_60094)" shape-rendering="crispEdges"/>
<path d="M22.7771 24.4444C23.6976 24.4444 24.4438 23.6982 24.4438 22.7777C24.4438 21.8573 23.6976 21.1111 22.7771 21.1111C21.8567 21.1111 21.1105 21.8573 21.1105 22.7777C21.1105 23.6982 21.8567 24.4444 22.7771 24.4444Z" fill="url(#paint15_linear_328_60094)" shape-rendering="crispEdges"/>
<path d="M18.3327 20C19.2532 20 19.9993 19.2538 19.9993 18.3333C19.9993 17.4128 19.2532 16.6666 18.3327 16.6666C17.4122 16.6666 16.666 17.4128 16.666 18.3333C16.666 19.2538 17.4122 20 18.3327 20Z" fill="url(#paint16_linear_328_60094)" shape-rendering="crispEdges"/>
</g>
</g>
<defs>
<filter id="filter0_d_328_60094" x="6.16602" y="6.41663" width="27.666" height="27.6666" filterUnits="userSpaceOnUse" color-interpolation-filters="sRGB">
<feFlood flood-opacity="0" result="BackgroundImageFix"/>
<feColorMatrix in="SourceAlpha" type="matrix" values="0 0 0 0 0 0 0 0 0 0 0 0 0 0 0 0 0 0 127 0" result="hardAlpha"/>
<feOffset dy="0.25"/>
<feGaussianBlur stdDeviation="0.25"/>
<feComposite in2="hardAlpha" operator="out"/>
<feColorMatrix type="matrix" values="0 0 0 0 0 0 0 0 0 0 0 0 0 0 0 0 0 0 0.2 0"/>
<feBlend mode="normal" in2="BackgroundImageFix" result="effect1_dropShadow_328_60094"/>
<feBlend mode="normal" in="SourceGraphic" in2="effect1_dropShadow_328_60094" result="shape"/>
</filter>
<linearGradient id="paint0_linear_328_60094" x1="20" y1="0" x2="20" y2="40" gradientUnits="userSpaceOnUse">
<stop stop-color="#FD6550"/>
<stop offset="1" stop-color="#FF946A"/>
</linearGradient>
<linearGradient id="paint1_linear_328_60094" x1="0" y1="40" x2="40" y2="40" gradientUnits="userSpaceOnUse">
<stop stop-color="#FF7347"/>
<stop offset="1" stop-color="#E336FF"/>
</linearGradient>
<linearGradient id="paint2_linear_328_60094" x1="19.9993" y1="6.66663" x2="19.9993" y2="33.3333" gradientUnits="userSpaceOnUse">
<stop stop-color="white"/>
<stop offset="1" stop-color="white" stop-opacity="0.7"/>
</linearGradient>
<linearGradient id="paint3_linear_328_60094" x1="19.9993" y1="6.66663" x2="19.9993" y2="33.3333" gradientUnits="userSpaceOnUse">
<stop stop-color="white"/>
<stop offset="1" stop-color="white" stop-opacity="0.7"/>
</linearGradient>
<linearGradient id="paint4_linear_328_60094" x1="19.9993" y1="6.66663" x2="19.9993" y2="33.3333" gradientUnits="userSpaceOnUse">
<stop stop-color="white"/>
<stop offset="1" stop-color="white" stop-opacity="0.7"/>
</linearGradient>
<linearGradient id="paint5_linear_328_60094" x1="19.9993" y1="6.66663" x2="19.9993" y2="33.3333" gradientUnits="userSpaceOnUse">
<stop stop-color="white"/>
<stop offset="1" stop-color="white" stop-opacity="0.7"/>
</linearGradient>
<linearGradient id="paint6_linear_328_60094" x1="19.9993" y1="6.66663" x2="19.9993" y2="33.3333" gradientUnits="userSpaceOnUse">
<stop stop-color="white"/>
<stop offset="1" stop-color="white" stop-opacity="0.7"/>
</linearGradient>
<linearGradient id="paint7_linear_328_60094" x1="19.9993" y1="6.66663" x2="19.9993" y2="33.3333" gradientUnits="userSpaceOnUse">
<stop stop-color="white"/>
<stop offset="1" stop-color="white" stop-opacity="0.7"/>
</linearGradient>
<linearGradient id="paint8_linear_328_60094" x1="19.9993" y1="6.66663" x2="19.9993" y2="33.3333" gradientUnits="userSpaceOnUse">
<stop stop-color="white"/>
<stop offset="1" stop-color="white" stop-opacity="0.7"/>
</linearGradient>
<linearGradient id="paint9_linear_328_60094" x1="19.9993" y1="6.66663" x2="19.9993" y2="33.3333" gradientUnits="userSpaceOnUse">
<stop stop-color="white"/>
<stop offset="1" stop-color="white" stop-opacity="0.7"/>
</linearGradient>
<linearGradient id="paint10_linear_328_60094" x1="19.9993" y1="6.66663" x2="19.9993" y2="33.3333" gradientUnits="userSpaceOnUse">
<stop stop-color="white"/>
<stop offset="1" stop-color="white" stop-opacity="0.7"/>
</linearGradient>
<linearGradient id="paint11_linear_328_60094" x1="19.9993" y1="6.66663" x2="19.9993" y2="33.3333" gradientUnits="userSpaceOnUse">
<stop stop-color="white"/>
<stop offset="1" stop-color="white" stop-opacity="0.7"/>
</linearGradient>
<linearGradient id="paint12_linear_328_60094" x1="19.9993" y1="6.66663" x2="19.9993" y2="33.3333" gradientUnits="userSpaceOnUse">
<stop stop-color="white"/>
<stop offset="1" stop-color="white" stop-opacity="0.7"/>
</linearGradient>
<linearGradient id="paint13_linear_328_60094" x1="19.9993" y1="6.66663" x2="19.9993" y2="33.3333" gradientUnits="userSpaceOnUse">
<stop stop-color="white"/>
<stop offset="1" stop-color="white" stop-opacity="0.7"/>
</linearGradient>
<linearGradient id="paint14_linear_328_60094" x1="19.9993" y1="6.66663" x2="19.9993" y2="33.3333" gradientUnits="userSpaceOnUse">
<stop stop-color="white"/>
<stop offset="1" stop-color="white" stop-opacity="0.7"/>
</linearGradient>
<linearGradient id="paint15_linear_328_60094" x1="19.9993" y1="6.66663" x2="19.9993" y2="33.3333" gradientUnits="userSpaceOnUse">
<stop stop-color="white"/>
<stop offset="1" stop-color="white" stop-opacity="0.7"/>
</linearGradient>
<linearGradient id="paint16_linear_328_60094" x1="19.9993" y1="6.66663" x2="19.9993" y2="33.3333" gradientUnits="userSpaceOnUse">
<stop stop-color="white"/>
<stop offset="1" stop-color="white" stop-opacity="0.7"/>
</linearGradient>
<clipPath id="clip0_328_60094">
<rect width="26.6667" height="26.6667" fill="white" transform="translate(6.66602 6.66663)"/>
</clipPath>
</defs>
</svg>
