<svg xmlns="http://www.w3.org/2000/svg" xmlns:xlink="http://www.w3.org/1999/xlink"><defs><style>
    .sprite-symbol-usage {display: none;}
    .sprite-symbol-usage:target {display: inline;}
  </style><symbol fill="none" viewBox="0 0 16 16" id="arrow-d_sprite"><g clip-path="url(#clip0_380_20198)"><path stroke="#13161E" stroke-linecap="round" stroke-linejoin="round" stroke-width="2" d="M11.667 6.396 8 9.604 4.334 6.396" /></g></symbol><symbol fill="none" viewBox="0 0 24 24" id="arrow-r_sprite"><path fill="currentColor" d="M4.26 12.751h16.334c.362 0 .656-.336.656-.75s-.294-.75-.656-.75H4.26c-.362 0-.656.336-.656.75s.294.75.656.75Z" /><path fill="currentColor" d="M9.1 17.536a.627.627 0 0 0 .51-.279c.228-.322.184-.794-.098-1.055l-4.81-4.434 4.81-4.434c.282-.26.326-.732.098-1.055-.227-.322-.64-.373-.922-.113l-5.444 5.018a.795.795 0 0 0-.244.584c0 .227.09.441.244.584l5.444 5.018a.605.605 0 0 0 .411.166Z" /></symbol><symbol fill="none" viewBox="0 0 20 20" id="bot_sprite"><g clip-path="url(#clip0_298_9205)"><path fill="white" d="M14.534 4.005h-.5V2.913a1.5 1.5 0 1 0-1 0v1.092H7.036V2.913a1.5 1.5 0 1 0-1 0v1.092h-.5a2.502 2.502 0 0 0-2.499 2.5v8.497a2.502 2.502 0 0 0 2.5 2.499h1.499v2a.5.5 0 0 0 .765.423l3.877-2.423h2.855a2.502 2.502 0 0 0 2.5-2.5V6.505a2.502 2.502 0 0 0-2.5-2.499Zm-6.998 3c.827 0 1.498.671 1.5 1.499a.5.5 0 1 1-1 0 .5.5 0 0 0-1 0 .5.5 0 1 1-1 0c.001-.828.672-1.499 1.5-1.5Zm6.221 6.195a8.467 8.467 0 0 1-3.722.808 8.464 8.464 0 0 1-3.723-.808.5.5 0 0 1 .448-.895c1.867.934 4.684.934 6.55 0a.5.5 0 1 1 .447.895Zm-.223-4.197a.5.5 0 0 1-.5-.5.5.5 0 1 0-1 0 .5.5 0 1 1-1 0 1.5 1.5 0 1 1 3 0 .5.5 0 0 1-.5.5Zm4.997-1h-.5v5h.5a1.501 1.501 0 0 0 1.5-1.5v-2c-.001-.827-.672-1.498-1.5-1.5ZM.037 9.504v2c.001.828.672 1.498 1.5 1.5h.5v-5h-.5c-.828.002-1.499.673-1.5 1.5Z" /></g></symbol><symbol fill="none" viewBox="0 0 24 24" id="clock_sprite"><g clip-path="url(#clip0_282_9472)"><path stroke="white" stroke-linecap="round" stroke-linejoin="round" stroke-width="1.5" d="M12 9.429v4m4 0h-4" /><rect width="15.5" height="15.5" x="4.25" y="5.679" stroke="white" stroke-width="1.5" rx="7.75" /><path stroke="white" stroke-linecap="round" stroke-width="1.5" d="M8.625 2.813h6.75" /></g></symbol><symbol fill="none" viewBox="0 0 20 20" id="email_sprite"><path fill="currentColor" d="M19 2.5H1a.75.75 0 0 0-.75.75V16a1.5 1.5 0 0 0 1.5 1.5h16.5a1.5 1.5 0 0 0 1.5-1.5V3.25A.75.75 0 0 0 19 2.5ZM7.254 10 1.75 15.045V4.955L7.254 10Zm1.11 1.017 1.125 1.036a.75.75 0 0 0 1.014 0l1.125-1.036L17.066 16H2.928l5.436-4.983ZM12.746 10l5.504-5.046v10.092L12.746 10Z" /></symbol><symbol fill="none" viewBox="0 0 24 24" id="error_sprite"><g clip-path="url(#clip0_304_9813)"><path stroke="#FF4158" stroke-linecap="round" stroke-width="1.5" d="m9.879 10.12 4.242 4.243m0-4.242-4.243 4.242" /><circle cx="12" cy="11.999" r="9.25" stroke="#FF4158" stroke-width="1.5" /></g></symbol><symbol fill="none" viewBox="0 0 24 24" id="inst_sprite"><path stroke="currentColor" stroke-miterlimit="10" stroke-width="1.5" d="M12 15.75a3.75 3.75 0 1 0 0-7.5 3.75 3.75 0 0 0 0 7.5Z" /><path stroke="currentColor" stroke-linecap="round" stroke-linejoin="round" stroke-width="1.5" d="M16.125 3.375h-8.25a4.5 4.5 0 0 0-4.5 4.5v8.25a4.5 4.5 0 0 0 4.5 4.5h8.25a4.5 4.5 0 0 0 4.5-4.5v-8.25a4.5 4.5 0 0 0-4.5-4.5Z" /><path fill="currentColor" d="M16.875 8.25a1.125 1.125 0 1 0 0-2.25 1.125 1.125 0 0 0 0 2.25Z" /></symbol><symbol fill="none" viewBox="0 0 20 20" id="lighting_sprite"><path fill="#1B1B1E" d="M16.858 9.232a.625.625 0 0 0-.39-.442l-4.501-1.688 1.145-5.73a.625.625 0 0 0-1.07-.546L3.293 10.2a.625.625 0 0 0 .235 1.015l4.502 1.689-1.142 5.722a.625.625 0 0 0 1.07.547l8.75-9.375a.624.624 0 0 0 .151-.567Zm-8.314 7.487.818-4.092a.625.625 0 0 0-.39-.708l-4.128-1.551 6.61-7.083-.817 4.092a.625.625 0 0 0 .39.708l4.126 1.547-6.609 7.087Z" /></symbol><symbol fill="none" viewBox="0 0 20 20" id="like_sprite"><path fill="#1B1B1E" d="M18.281 6.26a1.874 1.874 0 0 0-1.406-.635H12.5v-1.25A3.125 3.125 0 0 0 9.375 1.25a.625.625 0 0 0-.56.345L5.866 7.5H2.5a1.25 1.25 0 0 0-1.25 1.25v6.875a1.25 1.25 0 0 0 1.25 1.25h13.438a1.875 1.875 0 0 0 1.86-1.64l.938-7.5a1.874 1.874 0 0 0-.455-1.476ZM2.5 8.75h3.125v6.875H2.5V8.75Zm14.995-1.172-.937 7.5a.624.624 0 0 1-.62.547H6.874V8.273l2.868-5.737a1.875 1.875 0 0 1 1.507 1.839V6.25a.625.625 0 0 0 .625.625h5a.625.625 0 0 1 .62.703Z" /></symbol><symbol fill="none" viewBox="0 0 20 20" id="phone_sprite"><path fill="currentColor" d="M19.017 14.087a4.883 4.883 0 0 1-4.851 4.247c-6.892 0-12.5-5.608-12.5-12.5A4.884 4.884 0 0 1 5.913.983a1.389 1.389 0 0 1 1.442.826L9.19 5.902v.01a1.389 1.389 0 0 1-.11 1.31.95.95 0 0 1-.05.067L7.222 9.432c.65 1.32 2.032 2.69 3.37 3.343l2.113-1.798a1.389 1.389 0 0 1 1.382-.17l.011.005 4.09 1.832a1.389 1.389 0 0 1 .829 1.443Z" /></symbol><symbol fill="none" viewBox="0 0 24 24" id="success_sprite"><g clip-path="url(#clip0_304_9808)"><path stroke="#5BFF41" stroke-linecap="round" stroke-linejoin="round" stroke-width="1.5" d="m9 12 2 2 4-4" /><circle cx="12" cy="12" r="9.25" stroke="#5BFF41" stroke-width="1.5" /></g></symbol><symbol fill="none" viewBox="0 0 20 20" id="tg_sprite"><path fill="currentColor" d="m7.848 12.65-.331 4.654c.473 0 .678-.203.924-.448l2.22-2.12 4.598 3.367c.843.47 1.437.223 1.665-.776l3.018-14.143v-.001c.268-1.247-.45-1.734-1.272-1.428L.928 8.547c-1.21.47-1.192 1.145-.205 1.451l4.535 1.41 10.536-6.592c.496-.328.947-.146.576.182L7.848 12.65Z" /></symbol><symbol fill="none" viewBox="0 0 20 20" id="translate_sprite"><path fill="#1B1B1E" d="m18.684 16.595-4.375-8.75a.625.625 0 0 0-1.118 0l-1.697 3.393a6.875 6.875 0 0 1-3.681-1.322A8.098 8.098 0 0 0 9.976 5h1.899a.625.625 0 1 0 0-1.25H7.5V2.5a.625.625 0 0 0-1.25 0v1.25H1.875a.625.625 0 0 0 0 1.25h6.846a6.856 6.856 0 0 1-1.846 4.09 6.855 6.855 0 0 1-1.484-2.422.625.625 0 1 0-1.178.417 8.096 8.096 0 0 0 1.724 2.837 6.84 6.84 0 0 1-4.062 1.328.625.625 0 1 0 0 1.25 8.083 8.083 0 0 0 5-1.725 8.138 8.138 0 0 0 4.019 1.665l-2.078 4.155a.625.625 0 0 0 1.118.56L11.01 15h5.477l1.078 2.155a.625.625 0 0 0 1.118-.56Zm-7.048-2.845 2.114-4.227 2.113 4.227h-4.227Z" /></symbol><symbol fill="none" viewBox="0 0 20 20" id="wa_sprite"><g clip-path="url(#clip0_281_10040)"><path fill="currentColor" d="m14.59 11.923-.008.062c-1.833-.913-2.024-1.035-2.261-.68-.164.246-.643.804-.787.969-.146.162-.29.175-.538.062-.25-.125-1.053-.387-2.003-1.237-.74-.663-1.236-1.475-1.383-1.725-.244-.422.267-.482.732-1.362.083-.175.04-.313-.021-.437-.063-.125-.56-1.35-.768-1.838-.2-.487-.406-.425-.56-.425-.48-.042-.831-.035-1.14.287-1.345 1.478-1.006 3.003.145 4.625 2.261 2.96 3.466 3.505 5.67 4.261.595.19 1.137.163 1.566.101.479-.076 1.473-.6 1.68-1.188.213-.588.213-1.075.15-1.188-.061-.112-.225-.175-.475-.287Z" /><path fill="currentColor" d="M17.1 2.875C10.692-3.32.088 1.173.084 9.91c0 1.747.458 3.45 1.33 4.954L0 20l5.28-1.376c6.587 3.558 14.717-1.167 14.72-8.708a9.828 9.828 0 0 0-2.913-7.009l.013-.032Zm1.235 7.014c-.005 6.36-6.988 10.333-12.51 7.086l-.3-.178-3.125.813.837-3.038-.199-.313C-.398 8.79 3.55 1.64 10.06 1.64c2.212 0 4.287.862 5.85 2.425a8.157 8.157 0 0 1 2.425 5.825Z" /></g></symbol><symbol fill="none" viewBox="0 0 32 32" id="zoom_sprite"><g clip-path="url(#clip0_461_37061)"><path fill="white" d="M18.005 27.996c-3.228 0-6.2-1.093-8.568-2.93a14.08 14.08 0 0 1-2.504-2.504A13.935 13.935 0 0 1 4.01 14C4.01 6.27 10.276.006 18.005.006 25.735.006 32 6.272 32 14c0 7.729-6.266 13.995-13.995 13.995Zm0-23.992c-5.52 0-9.996 4.476-9.996 9.997 0 5.52 4.475 9.996 9.996 9.996 5.52 0 9.996-4.475 9.996-9.996 0-5.521-4.475-9.997-9.996-9.997Z" /><path fill="white" d="M.591 31.414c.378.375.888.583 1.42.58a1.999 1.999 0 0 0 1.42-.58l6.006-6.347a14.08 14.08 0 0 1-2.504-2.505L.591 28.576l-.011.011a2 2 0 0 0 .011 2.827Z" /><path stroke="white" stroke-linecap="round" stroke-width="3" d="M17.847 8.8v9.846m4.923-4.923h-9.846" /></g></symbol></defs><use id="arrow-d_sprite-usage" xlink:href="#arrow-d_sprite" class="sprite-symbol-usage" /><use id="arrow-r_sprite-usage" xlink:href="#arrow-r_sprite" class="sprite-symbol-usage" /><use id="bot_sprite-usage" xlink:href="#bot_sprite" class="sprite-symbol-usage" /><use id="clock_sprite-usage" xlink:href="#clock_sprite" class="sprite-symbol-usage" /><use id="email_sprite-usage" xlink:href="#email_sprite" class="sprite-symbol-usage" /><use id="error_sprite-usage" xlink:href="#error_sprite" class="sprite-symbol-usage" /><use id="inst_sprite-usage" xlink:href="#inst_sprite" class="sprite-symbol-usage" /><use id="lighting_sprite-usage" xlink:href="#lighting_sprite" class="sprite-symbol-usage" /><use id="like_sprite-usage" xlink:href="#like_sprite" class="sprite-symbol-usage" /><use id="phone_sprite-usage" xlink:href="#phone_sprite" class="sprite-symbol-usage" /><use id="success_sprite-usage" xlink:href="#success_sprite" class="sprite-symbol-usage" /><use id="tg_sprite-usage" xlink:href="#tg_sprite" class="sprite-symbol-usage" /><use id="translate_sprite-usage" xlink:href="#translate_sprite" class="sprite-symbol-usage" /><use id="wa_sprite-usage" xlink:href="#wa_sprite" class="sprite-symbol-usage" /><use id="zoom_sprite-usage" xlink:href="#zoom_sprite" class="sprite-symbol-usage" /></svg>