<svg width="187" height="44" viewBox="0 0 187 44" fill="none" xmlns="http://www.w3.org/2000/svg">
<circle cx="20" cy="22" r="20" fill="#E6FE51"/>
<rect width="20" height="20" transform="translate(10 12)" fill="#E6FE51"/>
<path d="M10.8726 20.1815C10.7038 19.5607 11.0777 18.9227 11.7077 18.7563L27.6784 14.5399C28.3084 14.3736 28.956 14.742 29.1248 15.3628C29.2936 15.9835 28.9198 16.6216 28.2897 16.7879L12.3191 21.0043C11.689 21.1706 11.0415 20.8022 10.8726 20.1815Z" fill="#1B1B1E"/>
<path d="M10.8726 19.5883C11.0414 18.9675 11.689 18.5991 12.319 18.7654L28.2897 22.9818C28.9197 23.1482 29.2936 23.7862 29.1248 24.407C28.9559 25.0278 28.3084 25.3961 27.6783 25.2298L11.7077 21.0134C11.0776 20.8471 10.7038 20.209 10.8726 19.5883Z" fill="#1B1B1E"/>
<path d="M10.8726 28.6372C10.7038 28.0165 11.0777 27.3784 11.7077 27.2121L27.6784 22.9957C28.3084 22.8294 28.956 23.1978 29.1248 23.8185C29.2936 24.4393 28.9198 25.0773 28.2897 25.2437L12.3191 29.4601C11.689 29.6264 11.0415 29.258 10.8726 28.6372Z" fill="#1B1B1E"/>
<path d="M63.2988 15.9636L60.3904 16.2809C60.3081 15.9871 60.1642 15.711 59.9585 15.4524C59.7587 15.1939 59.4885 14.9853 59.1477 14.8267C58.8069 14.668 58.3897 14.5887 57.8962 14.5887C57.2322 14.5887 56.674 14.7326 56.2216 15.0206C55.7751 15.3085 55.5547 15.6816 55.5606 16.1399C55.5547 16.5336 55.6987 16.8538 55.9925 17.1006C56.2921 17.3474 56.7857 17.5501 57.4731 17.7088L59.7822 18.2023C61.0631 18.4785 62.015 18.9163 62.6378 19.5156C63.2665 20.1149 63.5838 20.8994 63.5896 21.8689C63.5838 22.7209 63.334 23.473 62.8405 24.1252C62.3528 24.7716 61.6742 25.2769 60.8046 25.6412C59.935 26.0055 58.9362 26.1877 57.808 26.1877C56.1511 26.1877 54.8174 25.841 53.8067 25.1476C52.7961 24.4484 52.1939 23.4759 52 22.2303L55.1111 21.9306C55.2521 22.5417 55.5518 23.0029 56.0101 23.3144C56.4684 23.6258 57.0648 23.7815 57.7992 23.7815C58.5572 23.7815 59.1653 23.6258 59.6236 23.3144C60.0878 23.0029 60.3199 22.6181 60.3199 22.1598C60.3199 21.7719 60.17 21.4517 59.8704 21.199C59.5766 20.9464 59.1183 20.7525 58.4955 20.6173L56.1864 20.1326C54.8879 19.8623 53.9272 19.4069 53.3044 18.7664C52.6816 18.1201 52.3731 17.3033 52.379 16.3162C52.3731 15.4818 52.5993 14.7591 53.0576 14.148C53.5218 13.531 54.1652 13.0551 54.9877 12.7202C55.8162 12.3794 56.771 12.209 57.8521 12.209C59.4385 12.209 60.6871 12.5468 61.5978 13.2225C62.5144 13.8983 63.0814 14.812 63.2988 15.9636Z" fill="white"/>
<path d="M67.2107 31C66.7759 31 66.3734 30.9647 66.0033 30.8942C65.639 30.8296 65.3481 30.7532 65.1308 30.6651L65.8711 28.1796C66.3352 28.3147 66.7495 28.3794 67.1138 28.3735C67.4781 28.3676 67.7983 28.253 68.0744 28.0297C68.3565 27.8123 68.5944 27.448 68.7883 26.9368L69.0615 26.2053L64.1525 12.3852H67.5368L70.6568 22.6093H70.7978L73.9265 12.3852H77.3197L71.8995 27.5626C71.6468 28.2795 71.3119 28.8935 70.8947 29.4047C70.4776 29.9218 69.9664 30.3155 69.3612 30.5858C68.7619 30.8619 68.0451 31 67.2107 31Z" fill="white"/>
<path d="M89.2342 15.9636L86.3258 16.2809C86.2435 15.9871 86.0996 15.711 85.8939 15.4524C85.6941 15.1939 85.4239 14.9853 85.0831 14.8267C84.7423 14.668 84.3251 14.5887 83.8316 14.5887C83.1676 14.5887 82.6094 14.7326 82.157 15.0206C81.7105 15.3085 81.4901 15.6816 81.496 16.1399C81.4901 16.5336 81.6341 16.8538 81.9279 17.1006C82.2275 17.3474 82.7211 17.5501 83.4085 17.7088L85.7176 18.2023C86.9985 18.4785 87.9504 18.9163 88.5732 19.5156C89.2019 20.1149 89.5192 20.8994 89.525 21.8689C89.5192 22.7209 89.2695 23.473 88.7759 24.1252C88.2882 24.7716 87.6096 25.2769 86.74 25.6412C85.8704 26.0055 84.8716 26.1877 83.7434 26.1877C82.0865 26.1877 80.7528 25.841 79.7422 25.1476C78.7315 24.4484 78.1293 23.4759 77.9354 22.2303L81.0465 21.9306C81.1876 22.5417 81.4872 23.0029 81.9455 23.3144C82.4038 23.6258 83.0002 23.7815 83.7346 23.7815C84.4926 23.7815 85.1007 23.6258 85.559 23.3144C86.0232 23.0029 86.2553 22.6181 86.2553 22.1598C86.2553 21.7719 86.1054 21.4517 85.8058 21.199C85.512 20.9464 85.0537 20.7525 84.4309 20.6173L82.1218 20.1326C80.8233 19.8623 79.8626 19.4069 79.2398 18.7664C78.617 18.1201 78.3085 17.3033 78.3144 16.3162C78.3085 15.4818 78.5347 14.7591 78.993 14.148C79.4572 13.531 80.1006 13.0551 80.9231 12.7202C81.7516 12.3794 82.7064 12.209 83.7875 12.209C85.3739 12.209 86.6225 12.5468 87.5332 13.2225C88.4498 13.8983 89.0168 14.812 89.2342 15.9636Z" fill="white"/>
<path d="M97.923 12.3852V14.8531H90.1407V12.3852H97.923ZM92.0621 9.14176H95.2525V21.8513C95.2525 22.2802 95.3172 22.6093 95.4464 22.8384C95.5816 23.0617 95.7578 23.2145 95.9752 23.2967C96.1926 23.379 96.4335 23.4201 96.6979 23.4201C96.8977 23.4201 97.0798 23.4054 97.2444 23.3761C97.4147 23.3467 97.544 23.3202 97.6321 23.2967L98.1698 25.791C97.9994 25.8498 97.7555 25.9144 97.4383 25.9849C97.1268 26.0555 96.7449 26.0966 96.2925 26.1083C95.4934 26.1318 94.7737 26.0114 94.1332 25.747C93.4928 25.4767 92.9845 25.0595 92.6085 24.4954C92.2383 23.9313 92.0562 23.2262 92.0621 22.3801V9.14176Z" fill="white"/>
<path d="M105.446 26.1877C104.089 26.1877 102.917 25.9056 101.93 25.3415C100.948 24.7716 100.193 23.9666 99.6646 22.9266C99.1358 21.8806 98.8714 20.6497 98.8714 19.2336C98.8714 17.841 99.1358 16.6188 99.6646 15.567C100.199 14.5094 100.945 13.6867 101.903 13.0992C102.861 12.5057 103.986 12.209 105.279 12.209C106.113 12.209 106.9 12.3441 107.641 12.6144C108.387 12.8788 109.045 13.2901 109.615 13.8483C110.191 14.4065 110.643 15.1175 110.972 15.9813C111.301 16.8391 111.466 17.8615 111.466 19.0485V20.0268H100.37V17.8762H108.408C108.402 17.2651 108.269 16.7216 108.011 16.2457C107.752 15.7639 107.391 15.3849 106.927 15.1087C106.469 14.8325 105.934 14.6945 105.323 14.6945C104.671 14.6945 104.098 14.8531 103.604 15.1704C103.111 15.4818 102.726 15.8931 102.45 16.4043C102.179 16.9097 102.041 17.4649 102.035 18.0701V19.9475C102.035 20.7349 102.179 21.4106 102.467 21.9747C102.755 22.5329 103.158 22.9618 103.675 23.2615C104.192 23.5553 104.797 23.7022 105.49 23.7022C105.954 23.7022 106.375 23.6375 106.751 23.5083C107.127 23.3731 107.453 23.1763 107.729 22.9177C108.005 22.6592 108.214 22.339 108.355 21.957L111.334 22.292C111.146 23.0793 110.787 23.7668 110.258 24.3544C109.735 24.9361 109.066 25.3885 108.249 25.7117C107.432 26.029 106.498 26.1877 105.446 26.1877Z" fill="white"/>
<path d="M113.172 25.9232V12.3852H116.222V14.6856H116.38C116.662 13.91 117.129 13.3048 117.782 12.87C118.434 12.4293 119.212 12.209 120.117 12.209C121.034 12.209 121.806 12.4322 122.435 12.8788C123.07 13.3195 123.516 13.9218 123.775 14.6856H123.916C124.215 13.9335 124.721 13.3342 125.432 12.8876C126.148 12.4352 126.997 12.209 127.979 12.209C129.224 12.209 130.241 12.6026 131.028 13.39C131.815 14.1774 132.209 15.3261 132.209 16.8362V25.9232H129.01V17.3298C129.01 16.4895 128.787 15.8755 128.34 15.4877C127.893 15.094 127.347 14.8972 126.701 14.8972C125.931 14.8972 125.329 15.1381 124.894 15.6199C124.465 16.0958 124.251 16.7158 124.251 17.4796V25.9232H121.122V17.1976C121.122 16.4983 120.91 15.9401 120.487 15.523C120.07 15.1058 119.524 14.8972 118.848 14.8972C118.39 14.8972 117.973 15.0147 117.596 15.2497C117.22 15.4789 116.921 15.805 116.697 16.2281C116.474 16.6452 116.363 17.1329 116.363 17.6911V25.9232H113.172Z" fill="white"/>
<path d="M138.349 26.1965C137.491 26.1965 136.718 26.0437 136.031 25.7382C135.349 25.4267 134.809 24.9684 134.409 24.3632C134.015 23.758 133.819 23.0118 133.819 22.1245C133.819 21.3606 133.96 20.729 134.242 20.2295C134.524 19.7301 134.908 19.3305 135.396 19.0308C135.884 18.7312 136.433 18.505 137.044 18.3522C137.661 18.1935 138.299 18.079 138.957 18.0084C139.75 17.9262 140.393 17.8527 140.887 17.7881C141.38 17.7176 141.739 17.6118 141.962 17.4708C142.191 17.3239 142.306 17.0977 142.306 16.7921V16.7393C142.306 16.0753 142.109 15.5611 141.715 15.1968C141.322 14.8325 140.755 14.6504 140.014 14.6504C139.233 14.6504 138.613 14.8208 138.155 15.1616C137.702 15.5024 137.397 15.9049 137.238 16.3691L134.259 15.946C134.494 15.1234 134.882 14.4359 135.423 13.8836C135.963 13.3254 136.624 12.9082 137.406 12.632C138.187 12.35 139.051 12.209 139.997 12.209C140.649 12.209 141.298 12.2853 141.944 12.4381C142.591 12.5909 143.181 12.8436 143.716 13.1961C144.251 13.5428 144.68 14.0158 145.003 14.6151C145.332 15.2145 145.496 15.9636 145.496 16.8627V25.9232H142.429V24.0635H142.323C142.13 24.4396 141.856 24.7921 141.504 25.1212C141.157 25.4444 140.719 25.7058 140.191 25.9056C139.668 26.0995 139.054 26.1965 138.349 26.1965ZM139.177 23.852C139.818 23.852 140.373 23.7257 140.843 23.473C141.313 23.2145 141.674 22.8737 141.927 22.4506C142.185 22.0275 142.315 21.5663 142.315 21.0668V19.4715C142.215 19.5538 142.044 19.6302 141.803 19.7007C141.568 19.7712 141.304 19.8329 141.01 19.8858C140.716 19.9387 140.426 19.9857 140.138 20.0268C139.85 20.0679 139.6 20.1032 139.389 20.1326C138.913 20.1972 138.487 20.303 138.111 20.4499C137.735 20.5968 137.438 20.8024 137.22 21.0668C137.003 21.3254 136.894 21.6603 136.894 22.0716C136.894 22.6592 137.109 23.1028 137.538 23.4025C137.967 23.7022 138.513 23.852 139.177 23.852Z" fill="white"/>
<path d="M154.472 12.3852V14.8531H146.689V12.3852H154.472ZM148.611 9.14176H151.801V21.8513C151.801 22.2802 151.866 22.6093 151.995 22.8384C152.13 23.0617 152.306 23.2145 152.524 23.2967C152.741 23.379 152.982 23.4201 153.246 23.4201C153.446 23.4201 153.628 23.4054 153.793 23.3761C153.963 23.3467 154.093 23.3202 154.181 23.2967L154.718 25.791C154.548 25.8498 154.304 25.9144 153.987 25.9849C153.675 26.0555 153.293 26.0966 152.841 26.1083C152.042 26.1318 151.322 26.0114 150.682 25.747C150.041 25.4767 149.533 25.0595 149.157 24.4954C148.787 23.9313 148.605 23.2262 148.611 22.3801V9.14176Z" fill="white"/>
<path d="M156.147 25.9232V12.3852H159.337V25.9232H156.147ZM157.751 10.4638C157.246 10.4638 156.811 10.2964 156.447 9.96144C156.082 9.62064 155.9 9.21227 155.9 8.73632C155.9 8.2545 156.082 7.84613 156.447 7.5112C156.811 7.1704 157.246 7 157.751 7C158.262 7 158.697 7.1704 159.055 7.5112C159.42 7.84613 159.602 8.2545 159.602 8.73632C159.602 9.21227 159.42 9.62064 159.055 9.96144C158.697 10.2964 158.262 10.4638 157.751 10.4638Z" fill="white"/>
<path d="M167.531 26.1877C166.179 26.1877 165.019 25.8909 164.049 25.2975C163.086 24.704 162.342 23.8843 161.819 22.8384C161.302 21.7866 161.044 20.5762 161.044 19.2071C161.044 17.8322 161.308 16.6188 161.837 15.567C162.366 14.5094 163.112 13.6867 164.076 13.0992C165.045 12.5057 166.191 12.209 167.513 12.209C168.612 12.209 169.584 12.4117 170.43 12.8171C171.282 13.2167 171.961 13.7837 172.466 14.5182C172.971 15.2468 173.259 16.0988 173.33 17.0742H170.28C170.157 16.422 169.863 15.8784 169.399 15.4436C168.941 15.0029 168.327 14.7826 167.557 14.7826C166.905 14.7826 166.332 14.9589 165.838 15.3114C165.345 15.6581 164.96 16.1575 164.684 16.8098C164.414 17.462 164.278 18.2435 164.278 19.1542C164.278 20.0768 164.414 20.87 164.684 21.534C164.954 22.1921 165.333 22.7003 165.821 23.0588C166.314 23.4113 166.893 23.5876 167.557 23.5876C168.027 23.5876 168.447 23.4994 168.817 23.3232C169.193 23.141 169.508 22.8795 169.76 22.5387C170.013 22.1979 170.186 21.7837 170.28 21.296H173.33C173.253 22.2538 172.971 23.1028 172.484 23.8432C171.996 24.5777 171.332 25.1535 170.492 25.5707C169.652 25.982 168.665 26.1877 167.531 26.1877Z" fill="white"/>
<path d="M178.852 26.1965C177.994 26.1965 177.222 26.0437 176.534 25.7382C175.853 25.4267 175.312 24.9684 174.913 24.3632C174.519 23.758 174.322 23.0118 174.322 22.1245C174.322 21.3606 174.463 20.729 174.745 20.2295C175.027 19.7301 175.412 19.3305 175.9 19.0308C176.388 18.7312 176.937 18.505 177.548 18.3522C178.165 18.1935 178.802 18.079 179.46 18.0084C180.254 17.9262 180.897 17.8527 181.391 17.7881C181.884 17.7176 182.243 17.6118 182.466 17.4708C182.695 17.3239 182.81 17.0977 182.81 16.7921V16.7393C182.81 16.0753 182.613 15.5611 182.219 15.1968C181.825 14.8325 181.258 14.6504 180.518 14.6504C179.737 14.6504 179.117 14.8208 178.658 15.1616C178.206 15.5024 177.9 15.9049 177.742 16.3691L174.763 15.946C174.998 15.1234 175.386 14.4359 175.926 13.8836C176.467 13.3254 177.128 12.9082 177.909 12.632C178.691 12.35 179.554 12.209 180.5 12.209C181.153 12.209 181.802 12.2853 182.448 12.4381C183.095 12.5909 183.685 12.8436 184.22 13.1961C184.754 13.5428 185.183 14.0158 185.506 14.6151C185.835 15.2145 186 15.9636 186 16.8627V25.9232H182.933V24.0635H182.827C182.633 24.4396 182.36 24.7921 182.008 25.1212C181.661 25.4444 181.223 25.7058 180.694 25.9056C180.171 26.0995 179.557 26.1965 178.852 26.1965ZM179.681 23.852C180.321 23.852 180.876 23.7257 181.347 23.473C181.817 23.2145 182.178 22.8737 182.431 22.4506C182.689 22.0275 182.818 21.5663 182.818 21.0668V19.4715C182.718 19.5538 182.548 19.6302 182.307 19.7007C182.072 19.7712 181.808 19.8329 181.514 19.8858C181.22 19.9387 180.929 19.9857 180.641 20.0268C180.354 20.0679 180.104 20.1032 179.892 20.1326C179.416 20.1972 178.99 20.303 178.614 20.4499C178.238 20.5968 177.942 20.8024 177.724 21.0668C177.507 21.3254 177.398 21.6603 177.398 22.0716C177.398 22.6592 177.613 23.1028 178.041 23.4025C178.47 23.7022 179.017 23.852 179.681 23.852Z" fill="white"/>
<path d="M79 39.6585V33.4146H80.1654V34.4309H80.2426C80.3726 34.0867 80.5851 33.8184 80.8802 33.626C81.1752 33.4309 81.5285 33.3333 81.94 33.3333C82.3569 33.3333 82.7062 33.4309 82.9877 33.626C83.272 33.8211 83.4818 34.0894 83.6171 34.4309H83.6821C83.831 34.0976 84.0679 33.832 84.3927 33.6341C84.7176 33.4336 85.1047 33.3333 85.5541 33.3333C86.1199 33.3333 86.5815 33.5108 86.9389 33.8659C87.2989 34.2209 87.4789 34.7561 87.4789 35.4715V39.6585H86.2648V35.5854C86.2648 35.1626 86.1497 34.8564 85.9196 34.6667C85.6895 34.477 85.4147 34.3821 85.0953 34.3821C84.7 34.3821 84.3927 34.5041 84.1735 34.748C83.9542 34.9892 83.8445 35.2995 83.8445 35.6789V39.6585H82.6344V35.5081C82.6344 35.1694 82.5288 34.897 82.3177 34.6911C82.1065 34.4851 81.8317 34.3821 81.4933 34.3821C81.2632 34.3821 81.0507 34.4431 80.8558 34.565C80.6636 34.6843 80.5079 34.8509 80.3888 35.065C80.2724 35.2791 80.2142 35.5271 80.2142 35.8089V39.6585H79Z" fill="#E6FE51"/>
<path d="M90.9215 39.7967C90.5262 39.7967 90.1689 39.7236 89.8494 39.5772C89.53 39.4282 89.2769 39.2127 89.0901 38.9309C88.906 38.6491 88.8139 38.3035 88.8139 37.8943C88.8139 37.542 88.8816 37.252 89.017 37.0244C89.1523 36.7967 89.3351 36.6165 89.5652 36.4837C89.7953 36.3509 90.0525 36.2507 90.3367 36.1829C90.621 36.1152 90.9107 36.0637 91.2057 36.0285C91.5793 35.9851 91.8825 35.9499 92.1154 35.9228C92.3482 35.893 92.5174 35.8455 92.623 35.7805C92.7285 35.7154 92.7813 35.6098 92.7813 35.4634V35.435C92.7813 35.0799 92.6812 34.8049 92.4808 34.6098C92.2832 34.4146 91.9881 34.3171 91.5956 34.3171C91.1868 34.3171 90.8646 34.4079 90.6291 34.5894C90.3963 34.7683 90.2352 34.9675 90.1459 35.187L89.0048 34.9268C89.1402 34.5474 89.3378 34.2412 89.5977 34.0081C89.8603 33.7724 90.1621 33.6016 90.5032 33.4959C90.8443 33.3875 91.203 33.3333 91.5793 33.3333C91.8284 33.3333 92.0924 33.3631 92.3712 33.4228C92.6527 33.4797 92.9153 33.5854 93.159 33.7398C93.4053 33.8943 93.607 34.1152 93.7641 34.4024C93.9211 34.687 93.9996 35.0569 93.9996 35.5122V39.6585H92.8138V38.8049H92.7651C92.6866 38.9621 92.5688 39.1165 92.4118 39.2683C92.2548 39.4201 92.0531 39.5461 91.8067 39.6463C91.5604 39.7466 91.2653 39.7967 90.9215 39.7967ZM91.1854 38.8211C91.5211 38.8211 91.8081 38.7547 92.0463 38.622C92.2873 38.4892 92.47 38.3157 92.5945 38.1016C92.7218 37.8848 92.7854 37.6531 92.7854 37.4065V36.6016C92.7421 36.645 92.6582 36.6856 92.5336 36.7236C92.4118 36.7588 92.2724 36.79 92.1154 36.8171C91.9583 36.8415 91.8054 36.8645 91.6565 36.8862C91.5076 36.9051 91.3831 36.9214 91.2829 36.935C91.0474 36.9648 90.8322 37.0149 90.6372 37.0854C90.445 37.1558 90.2907 37.2575 90.1743 37.3902C90.0606 37.5203 90.0037 37.6938 90.0037 37.9106C90.0037 38.2114 90.1147 38.439 90.3367 38.5935C90.5587 38.7453 90.8416 38.8211 91.1854 38.8211Z" fill="#E6FE51"/>
<path d="M97.9517 39.7805C97.4482 39.7805 96.9988 39.6518 96.6036 39.3943C96.211 39.1341 95.9024 38.7642 95.6777 38.2846C95.4557 37.8022 95.3447 37.2236 95.3447 36.5488C95.3447 35.874 95.4571 35.2967 95.6818 34.8171C95.9092 34.3374 96.2205 33.9702 96.6157 33.7154C97.011 33.4607 97.459 33.3333 97.9599 33.3333C98.347 33.3333 98.6583 33.3984 98.8939 33.5285C99.1321 33.6558 99.3162 33.8049 99.4461 33.9756C99.5788 34.1463 99.6817 34.2967 99.7547 34.4268H99.8278V31.3333H101.042V39.6585H99.8563V38.687H99.7547C99.6817 38.8198 99.5761 38.9715 99.438 39.1423C99.3026 39.313 99.1158 39.4621 98.8776 39.5894C98.6394 39.7168 98.3308 39.7805 97.9517 39.7805ZM98.2198 38.7439C98.569 38.7439 98.8641 38.6518 99.105 38.4675C99.3487 38.2805 99.5328 38.0217 99.6573 37.6911C99.7845 37.3604 99.8481 36.9756 99.8481 36.5366C99.8481 36.103 99.7859 35.7236 99.6613 35.3984C99.5368 35.0732 99.3541 34.8198 99.1131 34.6382C98.8722 34.4566 98.5744 34.3659 98.2198 34.3659C97.8543 34.3659 97.5497 34.4607 97.3061 34.6504C97.0624 34.8401 96.8783 35.0989 96.7538 35.4268C96.632 35.7547 96.5711 36.1247 96.5711 36.5366C96.5711 36.9539 96.6333 37.3293 96.7579 37.6626C96.8824 37.9959 97.0665 38.2602 97.3101 38.4553C97.5565 38.6477 97.8597 38.7439 98.2198 38.7439Z" fill="#E6FE51"/>
<path d="M105.463 39.7846C104.849 39.7846 104.319 39.6531 103.875 39.3902C103.434 39.1247 103.093 38.752 102.852 38.2724C102.614 37.79 102.495 37.2249 102.495 36.5772C102.495 35.9377 102.614 35.374 102.852 34.8862C103.093 34.3984 103.429 34.0176 103.859 33.7439C104.292 33.4702 104.799 33.3333 105.378 33.3333C105.73 33.3333 106.071 33.3916 106.401 33.5081C106.732 33.6247 107.028 33.8076 107.291 34.0569C107.553 34.3062 107.76 34.6301 107.912 35.0285C108.063 35.4241 108.139 35.9051 108.139 36.4715V36.9024H103.181V35.9919H106.949C106.949 35.6721 106.884 35.3889 106.755 35.1423C106.625 34.893 106.442 34.6965 106.206 34.5528C105.974 34.4092 105.7 34.3374 105.386 34.3374C105.045 34.3374 104.747 34.4214 104.493 34.5894C104.241 34.7547 104.046 34.9715 103.908 35.2398C103.773 35.5054 103.705 35.794 103.705 36.1057V36.8171C103.705 37.2344 103.778 37.5894 103.924 37.8821C104.073 38.1748 104.28 38.3984 104.545 38.5528C104.811 38.7046 105.121 38.7805 105.475 38.7805C105.706 38.7805 105.915 38.748 106.105 38.6829C106.294 38.6152 106.458 38.5149 106.596 38.3821C106.734 38.2493 106.84 38.0854 106.913 37.8902L108.062 38.0976C107.97 38.4363 107.805 38.7331 107.567 38.9878C107.331 39.2398 107.035 39.4363 106.677 39.5772C106.323 39.7154 105.918 39.7846 105.463 39.7846Z" fill="#E6FE51"/>
<path d="M112.61 39.6585V31.3333H113.824V34.4268H113.897C113.968 34.2967 114.069 34.1463 114.202 33.9756C114.335 33.8049 114.519 33.6558 114.754 33.5285C114.99 33.3984 115.301 33.3333 115.688 33.3333C116.192 33.3333 116.641 33.4607 117.036 33.7154C117.432 33.9702 117.742 34.3374 117.966 34.8171C118.194 35.2967 118.308 35.874 118.308 36.5488C118.308 37.2236 118.195 37.8022 117.97 38.2846C117.746 38.7642 117.437 39.1341 117.045 39.3943C116.652 39.6518 116.204 39.7805 115.7 39.7805C115.321 39.7805 115.012 39.7168 114.771 39.5894C114.532 39.4621 114.346 39.313 114.21 39.1423C114.075 38.9715 113.971 38.8198 113.897 38.687H113.796V39.6585H112.61ZM113.8 36.5366C113.8 36.9756 113.864 37.3604 113.991 37.6911C114.118 38.0217 114.302 38.2805 114.543 38.4675C114.784 38.6518 115.079 38.7439 115.428 38.7439C115.791 38.7439 116.094 38.6477 116.338 38.4553C116.582 38.2602 116.766 37.9959 116.89 37.6626C117.018 37.3293 117.081 36.9539 117.081 36.5366C117.081 36.1247 117.019 35.7547 116.894 35.4268C116.773 35.0989 116.588 34.8401 116.342 34.6504C116.098 34.4607 115.794 34.3659 115.428 34.3659C115.076 34.3659 114.779 34.4566 114.535 34.6382C114.294 34.8198 114.111 35.0732 113.987 35.3984C113.862 35.7236 113.8 36.103 113.8 36.5366Z" fill="#E6FE51"/>
<path d="M120.226 42C120.045 42 119.88 41.9851 119.731 41.9553C119.582 41.9282 119.471 41.8984 119.398 41.8659L119.69 40.8699C119.912 40.9295 120.11 40.9553 120.283 40.9472C120.456 40.939 120.609 40.874 120.742 40.752C120.877 40.6301 120.996 40.4309 121.099 40.1545L121.25 39.7398L118.967 33.4146H120.267L121.847 38.2602H121.911L123.491 33.4146H124.795L122.224 40.4919C122.105 40.8171 121.953 41.0921 121.769 41.3171C121.585 41.5447 121.366 41.7154 121.112 41.8293C120.857 41.9431 120.562 42 120.226 42Z" fill="#E6FE51"/>
<path d="M129.06 39.6585V31.3333H134.274V32.4146H130.314V34.9512H134.001V36.0285H130.314V38.5772H134.322V39.6585H129.06Z" fill="#E6FE51"/>
<path d="M135.852 39.6585V33.4146H137.066V39.6585H135.852ZM136.465 32.4512C136.254 32.4512 136.073 32.3808 135.921 32.2398C135.772 32.0962 135.698 31.9255 135.698 31.7276C135.698 31.5271 135.772 31.3564 135.921 31.2154C136.073 31.0718 136.254 31 136.465 31C136.677 31 136.857 31.0718 137.005 31.2154C137.157 31.3564 137.233 31.5271 137.233 31.7276C137.233 31.9255 137.157 32.0962 137.005 32.2398C136.857 32.3808 136.677 32.4512 136.465 32.4512Z" fill="#E6FE51"/>
<path d="M139.914 35.9512V39.6585H138.7V33.4146H139.865V34.4309H139.942C140.086 34.1003 140.311 33.8347 140.617 33.6341C140.925 33.4336 141.314 33.3333 141.782 33.3333C142.207 33.3333 142.579 33.4228 142.899 33.6016C143.218 33.7778 143.466 34.0407 143.642 34.3902C143.818 34.7398 143.906 35.1721 143.906 35.687V39.6585H142.692V35.8333C142.692 35.3808 142.574 35.0271 142.338 34.7724C142.103 34.5149 141.779 34.3862 141.368 34.3862C141.086 34.3862 140.836 34.4472 140.617 34.5691C140.4 34.6911 140.228 34.8699 140.101 35.1057C139.976 35.3388 139.914 35.6206 139.914 35.9512Z" fill="#E6FE51"/>
<path d="M145.404 39.6585V38.8252L148.783 34.5285V34.4715H145.514V33.4146H150.297V34.3008L147.049 38.5447V38.6016H150.411V39.6585H145.404Z" fill="#E6FE51"/>
<path d="M154.353 39.7846C153.739 39.7846 153.209 39.6531 152.765 39.3902C152.324 39.1247 151.983 38.752 151.742 38.2724C151.504 37.79 151.385 37.2249 151.385 36.5772C151.385 35.9377 151.504 35.374 151.742 34.8862C151.983 34.3984 152.319 34.0176 152.749 33.7439C153.182 33.4702 153.689 33.3333 154.268 33.3333C154.62 33.3333 154.961 33.3916 155.291 33.5081C155.622 33.6247 155.918 33.8076 156.181 34.0569C156.443 34.3062 156.65 34.6301 156.802 35.0285C156.953 35.4241 157.029 35.9051 157.029 36.4715V36.9024H152.071V35.9919H155.839C155.839 35.6721 155.774 35.3889 155.645 35.1423C155.515 34.893 155.332 34.6965 155.096 34.5528C154.864 34.4092 154.59 34.3374 154.276 34.3374C153.935 34.3374 153.637 34.4214 153.383 34.5894C153.131 34.7547 152.936 34.9715 152.798 35.2398C152.663 35.5054 152.595 35.794 152.595 36.1057V36.8171C152.595 37.2344 152.668 37.5894 152.814 37.8821C152.963 38.1748 153.17 38.3984 153.435 38.5528C153.701 38.7046 154.011 38.7805 154.365 38.7805C154.596 38.7805 154.805 38.748 154.995 38.6829C155.184 38.6152 155.348 38.5149 155.486 38.3821C155.624 38.2493 155.73 38.0854 155.803 37.8902L156.952 38.0976C156.86 38.4363 156.695 38.7331 156.457 38.9878C156.221 39.2398 155.925 39.4363 155.567 39.5772C155.213 39.7154 154.808 39.7846 154.353 39.7846Z" fill="#E6FE51"/>
<path d="M159.591 31.3333V39.6585H158.376V31.3333H159.591Z" fill="#E6FE51"/>
<path d="M162.576 39.6585L160.741 33.4146H161.996L163.218 38H163.279L164.505 33.4146H165.76L166.978 37.9797H167.039L168.253 33.4146H169.508L167.677 39.6585H166.438L165.171 35.1504H165.078L163.811 39.6585H162.576Z" fill="#E6FE51"/>
<path d="M173.159 39.7846C172.544 39.7846 172.015 39.6531 171.571 39.3902C171.13 39.1247 170.789 38.752 170.548 38.2724C170.309 37.79 170.19 37.2249 170.19 36.5772C170.19 35.9377 170.309 35.374 170.548 34.8862C170.789 34.3984 171.124 34.0176 171.555 33.7439C171.988 33.4702 172.494 33.3333 173.073 33.3333C173.425 33.3333 173.767 33.3916 174.097 33.5081C174.427 33.6247 174.724 33.8076 174.986 34.0569C175.249 34.3062 175.456 34.6301 175.607 35.0285C175.759 35.4241 175.835 35.9051 175.835 36.4715V36.9024H170.877V35.9919H174.645C174.645 35.6721 174.58 35.3889 174.45 35.1423C174.32 34.893 174.137 34.6965 173.902 34.5528C173.669 34.4092 173.396 34.3374 173.082 34.3374C172.741 34.3374 172.443 34.4214 172.188 34.5894C171.936 34.7547 171.742 34.9715 171.603 35.2398C171.468 35.5054 171.4 35.794 171.4 36.1057V36.8171C171.4 37.2344 171.474 37.5894 171.62 37.8821C171.769 38.1748 171.976 38.3984 172.241 38.5528C172.506 38.7046 172.816 38.7805 173.171 38.7805C173.401 38.7805 173.611 38.748 173.8 38.6829C173.99 38.6152 174.154 38.5149 174.292 38.3821C174.43 38.2493 174.535 38.0854 174.608 37.8902L175.758 38.0976C175.666 38.4363 175.5 38.7331 175.262 38.9878C175.027 39.2398 174.73 39.4363 174.373 39.5772C174.018 39.7154 173.614 39.7846 173.159 39.7846Z" fill="#E6FE51"/>
<path d="M177.182 39.6585V33.4146H178.356V34.4065H178.421C178.534 34.0705 178.735 33.8062 179.022 33.6138C179.311 33.4187 179.639 33.3211 180.004 33.3211C180.08 33.3211 180.169 33.3238 180.272 33.3293C180.378 33.3347 180.46 33.3415 180.52 33.3496V34.5122C180.471 34.4986 180.385 34.4837 180.26 34.4675C180.136 34.4485 180.011 34.439 179.886 34.439C179.6 34.439 179.344 34.5 179.119 34.622C178.897 34.7412 178.721 34.9079 178.591 35.122C178.461 35.3333 178.396 35.5745 178.396 35.8455V39.6585H177.182Z" fill="#E6FE51"/>
<path d="M182.687 37.5407L182.679 36.0569H182.89L185.376 33.4146H186.829L183.995 36.4228H183.804L182.687 37.5407ZM181.571 39.6585V31.3333H182.785V39.6585H181.571ZM185.51 39.6585L183.276 36.6911L184.113 35.8415L187 39.6585H185.51Z" fill="#E6FE51"/>
</svg>
