<svg width="65" height="64" viewBox="0 0 65 64" fill="none" xmlns="http://www.w3.org/2000/svg">
<path d="M0.25 25.6C0.25 16.6392 0.25 12.1587 1.9939 8.73615C3.52787 5.72556 5.97556 3.27787 8.98615 1.7439C12.4087 0 16.8892 0 25.85 0H38.65C47.6108 0 52.0913 0 55.5138 1.7439C58.5244 3.27787 60.9721 5.72556 62.5061 8.73615C64.25 12.1587 64.25 16.6392 64.25 25.6V38.4C64.25 47.3608 64.25 51.8413 62.5061 55.2638C60.9721 58.2744 58.5244 60.7221 55.5138 62.2561C52.0913 64 47.6108 64 38.65 64H25.85C16.8892 64 12.4087 64 8.98615 62.2561C5.97556 60.7221 3.52787 58.2744 1.9939 55.2638C0.25 51.8413 0.25 47.3608 0.25 38.4V25.6Z" fill="url(#paint0_linear_328_60116)"/>
<g clip-path="url(#clip0_328_60116)">
<g filter="url(#filter0_d_328_60116)">
<path d="M45.3332 18.7533C41.4314 15.31 36.3413 13.5231 31.1434 13.7719C25.9456 14.0207 21.0493 16.2856 17.4943 20.0858C13.9392 23.8859 12.0053 28.9221 12.1031 34.125C12.201 39.3279 14.3228 44.2878 18.0182 47.9516C19.5791 49.4829 21.6799 50.3384 23.8665 50.3333H40.1448C42.2146 50.3614 44.2159 49.5929 45.7348 48.1866C47.7331 46.279 49.3163 43.9797 50.3857 41.4324C51.4551 38.8852 51.9875 36.1447 51.9498 33.3824C51.9122 30.62 51.3051 27.8951 50.1666 25.378C49.0281 22.8609 47.3827 20.6057 45.3332 18.7533ZM44.3648 38.9816C44.19 39.3872 43.8614 39.7068 43.451 39.8703C43.0407 40.0337 42.5823 40.0276 42.1765 39.8533L33.9815 36.3333C33.3942 36.7731 32.6781 37.0068 31.9444 36.9982C31.2107 36.9896 30.5003 36.7391 29.9235 36.2856C29.3466 35.8322 28.9355 35.201 28.7539 34.4901C28.5723 33.7792 28.6303 33.0282 28.919 32.3536C29.2077 31.6791 29.7109 31.1186 30.3506 30.7591C30.9903 30.3997 31.7307 30.2613 32.457 30.3655C33.1833 30.4698 33.8549 30.8107 34.3677 31.3356C34.8805 31.8604 35.2058 32.5397 35.2932 33.2683L43.4848 36.7916C43.6859 36.8782 43.8679 37.0035 44.0205 37.1604C44.1731 37.3173 44.2933 37.5027 44.3743 37.7061C44.4552 37.9094 44.4953 38.1268 44.4922 38.3456C44.4892 38.5645 44.4431 38.7806 44.3565 38.9816H44.3648ZM45.4365 33.6666C44.998 33.7213 44.5558 33.5996 44.207 33.3283C43.8582 33.0571 43.6314 32.6584 43.5765 32.2199C43.2609 29.6436 42.0867 27.2487 40.2432 25.4216C38.0551 23.2336 35.0875 22.0043 31.9932 22.0043C28.8988 22.0043 25.9312 23.2336 23.7432 25.4216C21.5551 27.6096 20.3259 30.5773 20.3259 33.6716C20.3259 36.766 21.5551 39.7336 23.7432 41.9216C23.9098 42.0966 24.0965 42.2549 24.2782 42.4216C24.6097 42.7142 24.8114 43.1266 24.8389 43.5679C24.8664 44.0092 24.7175 44.4434 24.4248 44.7749C24.1322 45.1065 23.7199 45.3082 23.2785 45.3357C22.8372 45.3632 22.403 45.2142 22.0715 44.9216C21.8365 44.7149 21.6098 44.4999 21.3865 44.2766C18.573 41.4627 16.9926 37.6463 16.9929 33.6671C16.9932 29.6879 18.5742 25.8718 21.3882 23.0583C24.2021 20.2448 28.0185 18.6643 31.9977 18.6646C35.9769 18.665 39.793 20.246 42.6065 23.0599C44.973 25.4113 46.4799 28.4902 46.8848 31.8016C46.9126 32.0192 46.8971 32.2402 46.8393 32.4518C46.7815 32.6634 46.6825 32.8616 46.5479 33.0348C46.4134 33.2081 46.2459 33.3531 46.0552 33.4615C45.8645 33.5699 45.6542 33.6396 45.4365 33.6666Z" fill="url(#paint1_linear_328_60116)" shape-rendering="crispEdges"/>
</g>
</g>
<defs>
<filter id="filter0_d_328_60116" x="11.5996" y="13.499" width="40.8516" height="37.585" filterUnits="userSpaceOnUse" color-interpolation-filters="sRGB">
<feFlood flood-opacity="0" result="BackgroundImageFix"/>
<feColorMatrix in="SourceAlpha" type="matrix" values="0 0 0 0 0 0 0 0 0 0 0 0 0 0 0 0 0 0 127 0" result="hardAlpha"/>
<feOffset dy="0.25"/>
<feGaussianBlur stdDeviation="0.25"/>
<feComposite in2="hardAlpha" operator="out"/>
<feColorMatrix type="matrix" values="0 0 0 0 0 0 0 0 0 0 0 0 0 0 0 0 0 0 0.2 0"/>
<feBlend mode="normal" in2="BackgroundImageFix" result="effect1_dropShadow_328_60116"/>
<feBlend mode="normal" in="SourceGraphic" in2="effect1_dropShadow_328_60116" result="shape"/>
</filter>
<linearGradient id="paint0_linear_328_60116" x1="32.25" y1="0" x2="32.25" y2="64" gradientUnits="userSpaceOnUse">
<stop stop-color="#CD4FF2"/>
<stop offset="1" stop-color="#5F4AFF"/>
</linearGradient>
<linearGradient id="paint1_linear_328_60116" x1="32.0257" y1="13.749" x2="32.0257" y2="50.334" gradientUnits="userSpaceOnUse">
<stop stop-color="white"/>
<stop offset="1" stop-color="white" stop-opacity="0.7"/>
</linearGradient>
<clipPath id="clip0_328_60116">
<rect width="40" height="40" fill="white" transform="translate(12 12)"/>
</clipPath>
</defs>
</svg>
