<svg width="65" height="64" viewBox="0 0 65 64" fill="none" xmlns="http://www.w3.org/2000/svg">
<path d="M0.75 25.6C0.75 16.6392 0.75 12.1587 2.4939 8.73615C4.02787 5.72556 6.47556 3.27787 9.48615 1.7439C12.9087 0 17.3892 0 26.35 0H39.15C48.1108 0 52.5913 0 56.0138 1.7439C59.0244 3.27787 61.4721 5.72556 63.0061 8.73615C64.75 12.1587 64.75 16.6392 64.75 25.6V38.4C64.75 47.3608 64.75 51.8413 63.0061 55.2638C61.4721 58.2744 59.0244 60.7221 56.0138 62.2561C52.5913 64 48.1108 64 39.15 64H26.35C17.3892 64 12.9087 64 9.48615 62.2561C6.47556 60.7221 4.02787 58.2744 2.4939 55.2638C0.75 51.8413 0.75 47.3608 0.75 38.4V25.6Z" fill="url(#paint0_linear_328_60112)"/>
<g clip-path="url(#clip0_328_60112)">
<g filter="url(#filter0_d_328_60112)">
<path d="M33.0933 30.685L46.4917 41.8817L37.0017 49C34.6317 50.7784 31.3717 50.7784 29.0017 49L18.78 41.3334C17.915 40.685 16.8617 40.3334 15.78 40.3334H14.6683C13.7467 40.3334 13 39.5867 13 38.6667V20.2284C13 19.3817 13.6317 18.6767 14.4733 18.5817C16.735 18.33 18.7717 17.4217 20.855 16.2084C23.8517 14.6667 27.7833 15.2167 30.215 17.495L31.2433 18.4834L24.565 25.0017C22.7767 26.7884 22.4917 29.6134 23.9017 31.565C24.7683 32.77 26.3367 33.6634 27.975 33.6634C29.2967 33.6634 30.565 33.1434 31.4817 32.225L33.0933 30.6834V30.685ZM46.2567 16.2084C43.44 14.8 39.9267 15.1667 37.41 17.1217L26.905 27.375C26.2867 27.995 26.1467 28.9867 26.6033 29.62C26.9033 30.0367 27.3383 30.2867 27.835 30.3284C28.3267 30.37 28.8033 30.1917 29.1483 29.845L35.1783 24.13C36.76 22.6284 39.0517 25.025 37.4833 26.5384L35.515 28.3667L49.8367 40.335H51.3317C52.2517 40.335 52.9983 39.5884 52.9983 38.6684V20.1717C52.9983 19.355 52.4017 18.68 51.5967 18.535C48.7733 18.025 46.255 16.21 46.255 16.21L46.2567 16.2084Z" fill="url(#paint1_linear_328_60112)" shape-rendering="crispEdges"/>
</g>
</g>
<defs>
<filter id="filter0_d_328_60112" x="12.5" y="15.087" width="40.998" height="35.9967" filterUnits="userSpaceOnUse" color-interpolation-filters="sRGB">
<feFlood flood-opacity="0" result="BackgroundImageFix"/>
<feColorMatrix in="SourceAlpha" type="matrix" values="0 0 0 0 0 0 0 0 0 0 0 0 0 0 0 0 0 0 127 0" result="hardAlpha"/>
<feOffset dy="0.25"/>
<feGaussianBlur stdDeviation="0.25"/>
<feComposite in2="hardAlpha" operator="out"/>
<feColorMatrix type="matrix" values="0 0 0 0 0 0 0 0 0 0 0 0 0 0 0 0 0 0 0.2 0"/>
<feBlend mode="normal" in2="BackgroundImageFix" result="effect1_dropShadow_328_60112"/>
<feBlend mode="normal" in="SourceGraphic" in2="effect1_dropShadow_328_60112" result="shape"/>
</filter>
<linearGradient id="paint0_linear_328_60112" x1="32.75" y1="0" x2="32.75" y2="64" gradientUnits="userSpaceOnUse">
<stop stop-color="#CD4FF2"/>
<stop offset="1" stop-color="#5F4AFF"/>
</linearGradient>
<linearGradient id="paint1_linear_328_60112" x1="32.9992" y1="15.337" x2="32.9992" y2="50.3338" gradientUnits="userSpaceOnUse">
<stop stop-color="white"/>
<stop offset="1" stop-color="white" stop-opacity="0.7"/>
</linearGradient>
<clipPath id="clip0_328_60112">
<rect width="40" height="40" fill="white" transform="translate(13 12)"/>
</clipPath>
</defs>
</svg>
