<svg width="65" height="64" viewBox="0 0 65 64" fill="none" xmlns="http://www.w3.org/2000/svg">
<path d="M0.25 25.6C0.25 16.6392 0.25 12.1587 1.9939 8.73615C3.52787 5.72556 5.97556 3.27787 8.98615 1.7439C12.4087 0 16.8892 0 25.85 0H38.65C47.6108 0 52.0913 0 55.5138 1.7439C58.5244 3.27787 60.9721 5.72556 62.5061 8.73615C64.25 12.1587 64.25 16.6392 64.25 25.6V38.4C64.25 47.3608 64.25 51.8413 62.5061 55.2638C60.9721 58.2744 58.5244 60.7221 55.5138 62.2561C52.0913 64 47.6108 64 38.65 64H25.85C16.8892 64 12.4087 64 8.98615 62.2561C5.97556 60.7221 3.52787 58.2744 1.9939 55.2638C0.25 51.8413 0.25 47.3608 0.25 38.4V25.6Z" fill="url(#paint0_linear_328_60108)"/>
<g clip-path="url(#clip0_328_60108)">
<g filter="url(#filter0_d_328_60108)">
<path d="M49.5 27C50.163 27 50.7989 26.7366 51.2678 26.2678C51.7366 25.7989 52 25.163 52 24.5V17.8333C52 16.2862 51.3854 14.8025 50.2915 13.7085C49.1975 12.6146 47.7138 12 46.1667 12H39.5C38.837 12 38.2011 12.2634 37.7322 12.7322C37.2634 13.2011 37 13.837 37 14.5C37 15.163 37.2634 15.7989 37.7322 16.2678C38.2011 16.7366 38.837 17 39.5 17H43.46L32 28.465L20.535 17H24.5C25.163 17 25.7989 16.7366 26.2678 16.2678C26.7366 15.7989 27 15.163 27 14.5C27 13.837 26.7366 13.2011 26.2678 12.7322C25.7989 12.2634 25.163 12 24.5 12H17.8333C16.2862 12 14.8025 12.6146 13.7085 13.7085C12.6146 14.8025 12 16.2862 12 17.8333L12 24.5C12 25.163 12.2634 25.7989 12.7322 26.2678C13.2011 26.7366 13.837 27 14.5 27C15.163 27 15.7989 26.7366 16.2678 26.2678C16.7366 25.7989 17 25.163 17 24.5V20.535L28.465 32L17 43.465V39.5C17 38.837 16.7366 38.2011 16.2678 37.7322C15.7989 37.2634 15.163 37 14.5 37C13.837 37 13.2011 37.2634 12.7322 37.7322C12.2634 38.2011 12 38.837 12 39.5L12 46.1667C12 47.7138 12.6146 49.1975 13.7085 50.2915C14.8025 51.3854 16.2862 52 17.8333 52H24.5C25.163 52 25.7989 51.7366 26.2678 51.2678C26.7366 50.7989 27 50.163 27 49.5C27 48.837 26.7366 48.2011 26.2678 47.7322C25.7989 47.2634 25.163 47 24.5 47H20.535L32 35.535L43.465 47H39.5C38.837 47 38.2011 47.2634 37.7322 47.7322C37.2634 48.2011 37 48.837 37 49.5C37 50.163 37.2634 50.7989 37.7322 51.2678C38.2011 51.7366 38.837 52 39.5 52H46.1667C47.7138 52 49.1975 51.3854 50.2915 50.2915C51.3854 49.1975 52 47.7138 52 46.1667V39.5C52 38.837 51.7366 38.2011 51.2678 37.7322C50.7989 37.2634 50.163 37 49.5 37C48.837 37 48.2011 37.2634 47.7322 37.7322C47.2634 38.2011 47 38.837 47 39.5V43.46L35.535 32L47 20.535V24.5C47 25.163 47.2634 25.7989 47.7322 26.2678C48.2011 26.7366 48.837 27 49.5 27Z" fill="url(#paint1_linear_328_60108)" shape-rendering="crispEdges"/>
</g>
</g>
<defs>
<filter id="filter0_d_328_60108" x="11.5" y="11.75" width="41" height="41" filterUnits="userSpaceOnUse" color-interpolation-filters="sRGB">
<feFlood flood-opacity="0" result="BackgroundImageFix"/>
<feColorMatrix in="SourceAlpha" type="matrix" values="0 0 0 0 0 0 0 0 0 0 0 0 0 0 0 0 0 0 127 0" result="hardAlpha"/>
<feOffset dy="0.25"/>
<feGaussianBlur stdDeviation="0.25"/>
<feComposite in2="hardAlpha" operator="out"/>
<feColorMatrix type="matrix" values="0 0 0 0 0 0 0 0 0 0 0 0 0 0 0 0 0 0 0.2 0"/>
<feBlend mode="normal" in2="BackgroundImageFix" result="effect1_dropShadow_328_60108"/>
<feBlend mode="normal" in="SourceGraphic" in2="effect1_dropShadow_328_60108" result="shape"/>
</filter>
<linearGradient id="paint0_linear_328_60108" x1="32.25" y1="0" x2="32.25" y2="64" gradientUnits="userSpaceOnUse">
<stop stop-color="#CD4FF2"/>
<stop offset="1" stop-color="#5F4AFF"/>
</linearGradient>
<linearGradient id="paint1_linear_328_60108" x1="32" y1="12" x2="32" y2="52" gradientUnits="userSpaceOnUse">
<stop stop-color="white"/>
<stop offset="1" stop-color="white" stop-opacity="0.7"/>
</linearGradient>
<clipPath id="clip0_328_60108">
<rect width="40" height="40" fill="white" transform="translate(12 12)"/>
</clipPath>
</defs>
</svg>
