<svg width="48" height="48" viewBox="0 0 48 48" fill="none" xmlns="http://www.w3.org/2000/svg">
<path d="M0 19.2C0 12.4794 0 9.11905 1.30792 6.55211C2.4584 4.29417 4.29417 2.4584 6.55211 1.30792C9.11905 0 12.4794 0 19.2 0H28.8C35.5206 0 38.8809 0 41.4479 1.30792C43.7058 2.4584 45.5416 4.29417 46.6921 6.55211C48 9.11905 48 12.4794 48 19.2V28.8C48 35.5206 48 38.8809 46.6921 41.4479C45.5416 43.7058 43.7058 45.5416 41.4479 46.6921C38.8809 48 35.5206 48 28.8 48H19.2C12.4794 48 9.11905 48 6.55211 46.6921C4.29417 45.5416 2.4584 43.7058 1.30792 41.4479C0 38.8809 0 35.5206 0 28.8V19.2Z" fill="#5E50FD"/>
<g filter="url(#filter0_d_459_16502)">
<path d="M11.9999 18.0234L9.68619 19.4596L11.9999 20.6665V18.0234Z" fill="url(#paint0_linear_459_16502)" shape-rendering="crispEdges"/>
<path d="M36 18.0234V20.6665L38.313 19.4596L36 18.0234Z" fill="url(#paint1_linear_459_16502)" shape-rendering="crispEdges"/>
<path d="M24.3472 28.4384C24.1295 28.5517 23.8704 28.5517 23.6527 28.4384L9 20.7936V36.7734C9 37.1876 9.33577 37.5234 9.75004 37.5234H38.2499C38.6642 37.5234 38.9999 37.1876 38.9999 36.7734V20.7936L24.3472 28.4384Z" fill="url(#paint2_linear_459_16502)" shape-rendering="crispEdges"/>
<path d="M34.4999 21.4493V11.2735C34.4999 10.8592 34.1641 10.5234 33.7498 10.5234H14.2501C13.8358 10.5234 13.5 10.8592 13.5 11.2735V21.4493L24 26.928L34.4999 21.4493ZM17.25 13.5234H30.7499C31.1642 13.5234 31.4999 13.8592 31.4999 14.2734C31.4999 14.6877 31.1642 15.0235 30.7499 15.0235H17.25C16.8357 15.0235 16.5 14.6877 16.5 14.2734C16.5 13.8592 16.8357 13.5234 17.25 13.5234ZM16.5 17.2734C16.5 16.8593 16.8357 16.5236 17.25 16.5236H30.7499C31.1642 16.5236 31.4999 16.8593 31.4999 17.2734C31.4999 17.6876 31.1642 18.0234 30.7499 18.0234H17.25C16.8357 18.0234 16.5 17.6876 16.5 17.2734ZM19.4999 20.2733C19.4999 19.8593 19.8357 19.5235 20.25 19.5235H27.75C28.1642 19.5235 28.5 19.8593 28.5 20.2733C28.5 20.6876 28.1642 21.0234 27.75 21.0234H20.25C19.8357 21.0234 19.4999 20.6876 19.4999 20.2733Z" fill="url(#paint3_linear_459_16502)" shape-rendering="crispEdges"/>
</g>
<defs>
<filter id="filter0_d_459_16502" x="8.5" y="10.2734" width="31" height="28" filterUnits="userSpaceOnUse" color-interpolation-filters="sRGB">
<feFlood flood-opacity="0" result="BackgroundImageFix"/>
<feColorMatrix in="SourceAlpha" type="matrix" values="0 0 0 0 0 0 0 0 0 0 0 0 0 0 0 0 0 0 127 0" result="hardAlpha"/>
<feOffset dy="0.25"/>
<feGaussianBlur stdDeviation="0.25"/>
<feComposite in2="hardAlpha" operator="out"/>
<feColorMatrix type="matrix" values="0 0 0 0 0 0 0 0 0 0 0 0 0 0 0 0 0 0 0.2 0"/>
<feBlend mode="normal" in2="BackgroundImageFix" result="effect1_dropShadow_459_16502"/>
<feBlend mode="normal" in="SourceGraphic" in2="effect1_dropShadow_459_16502" result="shape"/>
</filter>
<linearGradient id="paint0_linear_459_16502" x1="24" y1="10.5234" x2="24" y2="37.5234" gradientUnits="userSpaceOnUse">
<stop stop-color="white"/>
<stop offset="1" stop-color="white" stop-opacity="0.7"/>
</linearGradient>
<linearGradient id="paint1_linear_459_16502" x1="24" y1="10.5234" x2="24" y2="37.5234" gradientUnits="userSpaceOnUse">
<stop stop-color="white"/>
<stop offset="1" stop-color="white" stop-opacity="0.7"/>
</linearGradient>
<linearGradient id="paint2_linear_459_16502" x1="24" y1="10.5234" x2="24" y2="37.5234" gradientUnits="userSpaceOnUse">
<stop stop-color="white"/>
<stop offset="1" stop-color="white" stop-opacity="0.7"/>
</linearGradient>
<linearGradient id="paint3_linear_459_16502" x1="24" y1="10.5234" x2="24" y2="37.5234" gradientUnits="userSpaceOnUse">
<stop stop-color="white"/>
<stop offset="1" stop-color="white" stop-opacity="0.7"/>
</linearGradient>
</defs>
</svg>
